<svg width="40" height="40" viewBox="0 0 40 40" fill="none" xmlns="http://www.w3.org/2000/svg">
<path d="M31.8121 22.7034C31.8121 29.858 25.6716 35.6042 18.5734 35.6042C11.4752 35.6042 6.01065 29.8017 6.01065 22.7034C6.01065 15.6053 11.7568 9.80273 18.9114 9.80273C26.066 9.80273 31.8121 15.5489 31.8121 22.7034Z" fill="#89B75E"/>
<path d="M18.5733 35.8858C11.3624 35.8858 5.72891 30.0833 5.72891 22.7034C5.72891 15.4361 11.6441 9.521 18.9113 9.521C26.1785 9.521 32.0937 15.4361 32.0937 22.7034C32.0937 26.2525 30.629 29.6326 28.0376 32.055C25.5025 34.5337 22.1224 35.8858 18.5733 35.8858ZM18.9113 10.0843C11.9257 10.0843 6.29226 15.7178 6.29226 22.7034C6.29226 29.7452 11.7004 35.3225 18.5733 35.3225C25.6152 35.3225 31.5304 29.5763 31.5304 22.7034C31.5304 15.7178 25.8969 10.0843 18.9113 10.0843C18.9676 10.0843 18.9113 10.0843 18.9113 10.0843Z" fill="#000105"/>
<path d="M24.0943 33.5196C25.052 33.4069 25.897 32.7309 26.1787 31.7732C26.573 30.0268 25.1647 28.6184 22.4606 28.3931C22.5169 29.1254 22.6859 29.8578 22.9676 30.5902C24.038 31.1535 23.4746 32.8999 23.2493 33.1252C23.1366 33.2379 23.9816 33.5759 24.0943 33.5196Z" fill="#94948E"/>
<path d="M23.3059 28.5619C23.2495 28.6182 23.1932 28.7309 23.1369 28.8436C23.0805 28.9563 23.0805 29.1252 23.1369 29.2379C23.0805 29.2379 22.7988 29.4069 22.7425 29.2379C22.6862 28.9563 22.6862 28.7309 22.6862 28.4492L23.3059 28.5619C23.1932 28.5619 23.1369 28.5619 23.0242 28.5056L23.3059 28.5619Z" fill="#5E5E5E"/>
<path d="M19.2493 12.3938C19.2493 12.3938 17.2776 11.0981 19.0804 9.91504C19.193 10.253 19.3057 10.5911 19.4183 10.929C19.531 10.422 19.9254 10.0841 20.4324 10.0277C20.4324 10.0277 19.9817 11.2107 20.376 11.3798C20.4324 11.0981 20.6577 10.929 20.9394 10.8727C20.9394 10.8727 20.4887 10.5347 21.2774 10.7601C21.2774 10.7601 20.4324 11.6614 20.6014 12.1121C20.6014 12.1684 20.6577 12.1684 20.6577 12.2248C20.2071 12.3374 19.7563 12.3938 19.2493 12.3938Z" fill="#94948E"/>
<path d="M24.9392 13.8587C24.9392 13.8587 25.2209 8.67582 30.5163 7.60547C30.5163 7.60547 30.0093 7.88711 29.8967 8.22515C31.812 7.54913 33.9528 7.94345 35.5302 9.23916C35.0795 9.07014 34.6288 9.0138 34.1781 9.0138C36.3189 10.4785 37.2765 13.1263 36.7132 15.6614C36.7132 15.6614 36.7132 17.0134 36.4315 16.619C36.3752 17.3514 35.9808 18.0274 35.4175 18.4781C35.4175 18.4781 33.7838 22.4216 27.1363 20.7878C22.0661 19.6611 24.9392 13.8587 24.9392 13.8587Z" fill="#94948E"/>
<path opacity="0.4" d="M24.9391 13.9148C24.9391 13.9148 25.2208 8.73197 30.5163 7.66162C30.5163 7.66162 30.0093 7.94326 29.8966 8.28131C31.812 7.60528 33.9527 7.9996 35.5301 9.29531C35.0794 9.12629 34.6287 9.06995 34.1781 9.06995C34.1781 9.06995 38.5722 12.2247 36.3751 16.5062C36.3751 16.5062 36.3188 18.0272 35.3611 18.7033C35.3611 18.7033 33.84 22.4214 27.1925 20.844C22.066 19.7173 24.9391 13.9148 24.9391 13.9148Z" fill="#5E5E5D"/>
<path d="M13.278 13.9714C13.278 13.9714 14.7427 9.23926 11.0809 7.26752C11.2499 7.43654 11.3062 7.66191 11.3062 7.94355C11.3062 7.94355 8.82749 5.74651 6.63044 6.8732C6.63044 6.8732 7.58813 6.98588 7.7008 7.15484C7.7008 7.15484 3.47567 7.99989 3.194 11.9434C3.194 11.9434 3.194 14.7601 4.15169 15.3798C4.15169 15.3798 5.39107 17.8022 9.72887 18.5909C14.0667 19.3796 13.278 13.9714 13.278 13.9714Z" fill="#94948E"/>
<path d="M12.7712 13.1263C12.7712 13.1263 12.3769 9.57717 9.27843 8.67578L9.61647 9.57717C8.77142 9.52083 7.98274 9.80247 7.36306 10.3658C6.51803 10.9292 5.89835 11.8305 5.67301 12.8446C5.504 13.5769 5.56034 16.8444 9.33477 18.1401C13.1092 19.4358 12.7712 13.1263 12.7712 13.1263Z" fill="#E1D4DD"/>
<path d="M12.4889 13.915C12.4889 13.915 12.4889 10.4786 9.10888 10.704L9.39053 11.4926C9.10888 11.4926 8.82718 11.549 8.60188 11.6616C7.24981 12.2813 6.96814 13.9714 6.96814 14.1967C6.96814 14.1967 6.7428 16.8445 9.72857 17.4642C10.1229 17.5768 10.5736 17.5205 10.9679 17.3515C11.8693 16.9008 12.996 15.9431 12.4889 13.915Z" fill="white"/>
<path d="M12.0948 14.1968C12.2637 13.1264 11.5314 12.1124 10.461 11.9434C10.4047 11.9434 10.2921 11.9434 10.2357 11.9434C10.2357 11.9434 10.4047 12.2251 10.5737 12.563C9.95401 12.563 9.33432 12.9011 8.99634 13.4081C8.48928 14.3095 8.82732 15.4362 9.72865 15.8868C10.0103 15.9995 10.2921 16.1122 10.5737 16.1122C10.968 16.2812 12.0948 14.1968 12.0948 14.1968Z" fill="#5E5E5E"/>
<path d="M26.1781 15.1546C26.1781 15.1546 26.5725 11.6054 29.6709 10.7041L29.3329 11.6054C30.1779 11.5491 30.9666 11.8308 31.5863 12.3941C32.4313 12.9575 33.051 13.8589 33.2763 14.8729C33.4454 15.6052 33.389 18.8727 29.6146 20.1684C25.8401 21.464 26.1781 15.1546 26.1781 15.1546Z" fill="#E1D4DD"/>
<path d="M26.46 15.9429C26.46 15.9429 26.46 12.5064 29.8401 12.7318L29.5584 13.5205C29.8401 13.5205 30.1217 13.5768 30.3471 13.6895C31.6992 14.3092 31.9808 15.9992 31.9808 16.2246C31.9808 16.2246 32.2062 18.8723 29.2204 19.492C28.826 19.6047 28.3754 19.5483 27.981 19.3793C27.0797 18.9287 25.953 17.9709 26.46 15.9429Z" fill="white"/>
<path d="M26.8545 16.2246C26.6855 15.1542 27.4178 14.1402 28.4882 13.9712C28.5445 13.9712 28.6572 13.9712 28.7135 13.9712C28.7135 13.9712 28.5445 14.2529 28.3755 14.5909C28.9952 14.5909 29.6149 14.9289 29.9529 15.4359C30.4599 16.3372 30.1219 17.4639 29.2205 17.9147C28.9388 18.0273 28.6572 18.14 28.3755 18.14C27.9812 18.309 26.8545 16.2246 26.8545 16.2246Z" fill="#5E5E5E"/>
<path d="M8.99675 21.9144C8.99675 21.9144 8.37707 26.8719 15.1936 27.4915C23.1368 28.2239 25.0522 28.4492 26.6859 26.4775C27.5873 25.4071 30.573 16.6189 25.3339 13.5204C23.8692 12.9008 22.4045 12.4501 20.8271 12.2247C20.0947 12.1121 19.9821 12.2247 19.306 12.1121C15.6443 11.6614 12.9965 12.4501 12.4332 13.0134C11.5318 14.0274 9.10937 19.6046 8.99675 21.9144Z" fill="#94948E"/>
<g opacity="0.4">
<path opacity="0.4" d="M13.7853 27.041C21.7285 27.9987 25.0523 28.2804 26.686 26.3087C27.5874 25.2383 31.4182 14.5346 23.1933 12.7319C23.1933 12.7319 28.5451 15.943 26.348 22.9849C24.4326 28.6747 13.7853 27.041 13.7853 27.041Z" fill="#5E5E5E"/>
</g>
<path d="M9.84142 24.9001C10.2358 25.9141 11.0245 26.9845 16.1509 27.6042C20.0381 28.1112 23.1928 28.1112 24.7139 27.0408C26.4603 25.7451 26.5166 21.4073 23.7562 20.1116C20.9958 18.8159 15.0806 17.6892 11.4752 20.4496C10.0104 21.52 9.39075 23.548 9.84142 24.9001Z" fill="#DCD8CD"/>
<path d="M14.4047 18.6472C14.2356 19.2669 13.5033 19.5485 12.6582 19.3232C11.8133 19.0979 11.4189 18.7036 11.5879 17.9149C11.7569 17.1261 12.602 16.3375 13.3906 16.5065C14.1793 16.6755 14.5736 17.8022 14.4047 18.6472Z" fill="white"/>
<path d="M14.4609 18.8164C14.4045 19.2107 14.0666 19.4924 13.6722 19.4924C13.6159 19.4924 13.5596 19.4924 13.5032 19.4361C13.0526 19.2671 12.8272 18.8164 12.9962 18.3657C13.1088 17.9713 13.5032 17.6897 13.8975 17.8024C14.2919 17.9713 14.5172 18.3657 14.4609 18.8164Z" fill="#1F201E"/>
<path d="M21.9537 24.0554C21.5593 25.6892 19.1933 25.8581 16.9962 25.2948C14.7991 24.7315 11.6444 24.7878 12.8274 21.464C13.2217 20.281 15.4752 19.267 17.7285 19.605C20.6579 20.112 22.348 22.4217 21.9537 24.0554Z" fill="#1F201E"/>
<path d="M24.7701 19.9994C24.5447 20.7317 23.6997 21.0134 22.742 20.7317C21.7843 20.45 21.3336 19.9994 21.6153 19.098C21.897 18.1403 22.7984 17.5206 23.8124 17.6333C24.7701 17.8586 25.0517 19.0416 24.7701 19.9994Z" fill="white"/>
<path d="M23.3616 20.0555C23.3053 20.5062 22.8546 20.8442 22.3476 20.7879C22.2912 20.7879 22.2349 20.7879 22.1786 20.7315C21.6716 20.5062 21.4462 19.9429 21.6152 19.4358C21.7842 18.9851 22.2349 18.7598 22.6856 18.8725C23.1926 18.9851 23.5306 19.4922 23.3616 20.0555C23.3616 19.9992 23.3616 19.9992 23.3616 20.0555Z" fill="#1F201E"/>
<path d="M31.5307 7.83057C34.7418 8.50659 34.2911 8.95731 34.4601 9.01359C34.6854 9.01359 34.9671 9.01359 35.1925 8.95731C33.6151 7.83057 33.4461 8.05593 31.5307 7.83057Z" fill="#5E5E5D"/>
<path d="M15.4183 27.4917C15.1929 28.2241 12.9958 32.1675 14.6859 35.2096C15.4183 35.4913 22.4038 35.4349 22.4038 35.3222C22.4038 35.2096 23.8685 33.5759 23.8122 32.8435C23.7559 32.1111 22.5728 28.5057 22.4038 27.9424C22.2348 28.2804 15.4183 27.4917 15.4183 27.4917Z" fill="#94948E"/>
<g opacity="0.9">
<path opacity="0.9" d="M15.4753 28.6183C15.4753 28.224 15.588 27.8859 15.757 27.5479C15.9823 27.2662 15.419 27.4916 15.419 27.4916L15.081 28.6183L15.5316 28.8436L15.4753 28.6183Z" fill="white"/>
</g>
<path d="M22.3484 28.0553C22.4047 28.168 22.5737 28.7313 22.5737 28.7313L22.0667 28.675C22.0667 28.675 21.8413 28.1117 21.616 28.0553C21.3907 27.999 22.3484 28.0553 22.3484 28.0553Z" fill="#5E5E5D"/>
<path opacity="0.4" d="M14.4047 35.3788C14.4047 35.3788 16.2637 35.4351 17.3904 35.5478C18.1228 35.6605 18.7988 35.7168 19.5312 35.6041C20.1509 35.4914 21.8409 35.6041 22.7422 35.0971C23.5873 33.5761 23.7 31.717 23.0803 30.0833C22.9676 29.4636 22.8549 29.0129 22.8549 29.0129C22.8549 29.0129 23.0803 28.9002 22.7986 31.548C22.4043 34.4211 19.0805 36.2238 14.4047 35.3788Z" fill="#5E5E5E"/>
<path d="M13.8976 18.5907C14.0531 18.5907 14.1792 18.4645 14.1792 18.309C14.1792 18.1534 14.0531 18.0273 13.8976 18.0273C13.742 18.0273 13.6159 18.1534 13.6159 18.309C13.6159 18.4645 13.742 18.5907 13.8976 18.5907Z" fill="white"/>
<path d="M22.5733 19.7176C22.7289 19.7176 22.855 19.5916 22.855 19.436C22.855 19.2804 22.7289 19.1543 22.5733 19.1543C22.4177 19.1543 22.2917 19.2804 22.2917 19.436C22.2917 19.5916 22.4177 19.7176 22.5733 19.7176Z" fill="white"/>
<path d="M34.8539 9.46436C35.6426 10.7601 36.1496 12.1685 36.375 13.6332C36.544 15.0415 36.3186 16.5062 35.7553 17.802C36.0933 17.0696 36.4313 16.2809 36.8256 15.5486L36.4313 11.6051L34.8539 9.46436Z" fill="#5D5D5C"/>
<path opacity="0.8" d="M11.5314 8.45055C10.5174 7.43648 9.16537 6.87314 7.75698 6.98582C5.27824 7.04216 7.08096 6.70412 7.08096 6.70412L9.22171 6.53516C9.22171 6.53516 10.8554 7.49282 10.9681 7.54916L11.3624 7.94349L11.5314 8.45055Z" fill="white"/>
<path d="M17.5029 35.7167C17.5029 35.435 18.179 30.8155 17.7846 30.6466C17.3903 30.4775 13.9539 29.0692 14.0102 29.2382C14.0665 29.4072 13.5595 34.8153 13.5595 34.8153L17.5029 35.7167Z" fill="#E7B34E"/>
<path d="M13.7291 34.5902C13.7291 34.5902 14.9685 34.4211 14.9685 33.9705C14.9685 33.5198 13.6728 34.1958 13.6728 34.2521C13.6728 34.3085 13.7291 34.5902 13.7291 34.5902Z" fill="#8AA15E"/>
<path opacity="0.9" d="M15.3622 12.2247C15.3622 12.2247 12.6581 11.6614 11.6441 14.0838C10.9117 15.6049 10.2357 17.1259 9.67235 18.7033C9.67235 18.7033 8.3203 22.703 9.10901 23.8298C9.22163 22.8721 9.39065 21.9144 9.67235 20.9567C10.9681 14.8725 12.4891 14.1401 12.7144 13.8022C13.2778 13.0698 13.5031 12.3374 15.3622 12.2247Z" fill="white"/>
<path d="M21.1082 10.873C21.1082 10.873 20.0379 11.5491 20.6012 12.2251H20.7139L21.1082 10.873Z" fill="#5D5D5C"/>
<path opacity="0.8" d="M19.1365 12.1685C19.1365 12.1685 18.2915 10.9292 18.9675 10.0278C18.6859 10.1405 18.4605 10.3658 18.3478 10.6475L18.5732 11.9432L19.1365 12.1685Z" fill="white"/>
<path d="M22.0099 28.224C21.1086 28.224 20.1509 28.1676 19.2496 28.055C16.1511 27.7733 13.7287 27.4916 13.6161 27.4353C11.926 27.2663 10.405 26.3649 9.39089 25.0129C8.37689 23.4918 8.26422 21.3511 9.10925 18.7034C8.88389 18.647 8.65859 18.5907 8.48957 18.478C6.17982 17.6893 5.22213 17.3513 3.75741 15.1542C2.63072 13.3515 2.68705 11.0981 3.87009 9.35177C4.54611 8.3377 5.50381 7.549 6.68684 7.21101H6.6305L5.61647 6.98565L6.57417 6.59133C7.19385 6.30963 7.86988 6.19701 8.54591 6.25335C9.22193 6.30963 9.84162 6.47865 10.405 6.81669L10.2359 6.53499L11.1937 7.04199C11.8134 7.3237 12.3767 7.71802 12.8274 8.22502C13.6161 9.23909 14.0104 10.5911 13.8977 11.8869C15.3061 11.7178 16.7145 11.6615 18.1228 11.6615C18.0102 11.4361 17.9539 11.1545 17.9539 10.8728C18.0665 10.3094 18.4609 9.80243 18.9679 9.52073L19.5312 9.18275L19.4185 9.85877V10.1968C19.7566 9.85877 20.2072 9.74609 20.6579 9.80243L21.2776 9.85877L20.8833 10.3094C20.7706 10.4785 20.6579 10.5911 20.6016 10.7038C20.8269 10.5911 21.1086 10.5348 21.3339 10.6475L21.7846 10.7601L21.4466 11.0981C21.2213 11.3234 21.1086 11.6051 20.9959 11.8869C22.2353 12.1685 23.4747 12.5065 24.714 12.9009C24.9394 11.8305 25.5591 9.63341 27.6435 8.3377C28.4885 7.77436 29.4462 7.49272 30.4602 7.38004L31.2489 7.3237L30.9109 7.60534C31.3052 7.549 31.6433 7.49272 32.0376 7.49272C33.3896 7.549 34.6853 8.05606 35.6994 8.95739L36.6007 9.74609L35.4177 9.46439C35.3614 9.46439 35.305 9.46439 35.2487 9.40805C36.0937 10.1968 36.7134 11.2672 36.9387 12.4502C37.1641 13.9149 37.0514 15.4359 36.6571 16.9007C36.0937 18.1963 35.1923 19.3794 34.122 20.2807C32.1503 21.8018 29.6715 21.5764 28.6012 21.3511C28.6012 21.4638 28.5448 21.5201 28.5448 21.6328C28.3758 23.0412 27.9815 24.3932 27.3618 25.6889C26.6294 27.1536 25.6717 28.224 22.0099 28.224ZM7.86988 6.87303L8.71493 7.21101L7.86988 7.43638C7.81354 7.43638 7.81354 7.43638 7.7572 7.49272C7.13752 7.66168 5.3348 8.1124 4.43344 9.74609C3.36307 11.2672 3.30674 13.3515 4.32076 14.9289C5.67281 16.9569 6.4615 17.2386 8.77121 18.0274C9.05291 18.14 9.33461 18.1963 9.67259 18.309L10.1233 17.802L9.67259 18.9287C8.77121 21.5201 8.99657 23.3228 9.9543 24.7312C11.1937 26.6466 13.7287 26.872 13.7287 26.872C13.7287 26.872 16.2075 27.1536 19.3622 27.4916C25.5028 28.1113 26.1788 26.8156 26.9111 25.4636C27.4745 24.2242 27.8688 22.9285 28.0378 21.5764C28.0942 21.4074 28.0942 21.1821 28.1505 21.0131L28.2068 20.6751L28.5448 20.7314C29.2772 20.9004 31.8686 21.3511 33.8403 19.8301C34.8544 18.985 35.643 17.9147 36.2064 16.7316C36.6007 15.3796 36.6571 13.9712 36.4881 12.6192C36.2627 11.2108 35.4177 10.0278 34.1783 9.29543L33.1643 8.73209H34.291C33.615 8.3377 32.8826 8.16868 32.0939 8.1124C31.4179 8.1124 30.6855 8.22502 30.0658 8.50672L28.7701 9.07007L29.7279 8.05606C29.1082 8.22502 28.5448 8.45038 28.0378 8.78837C25.8971 10.1968 25.4464 12.6192 25.3337 13.3515L25.2774 13.7459L24.8831 13.5769C23.531 13.0699 22.0663 12.6755 20.6579 12.3939L20.4326 12.3375V11.7178L20.3199 11.9431L20.0382 11.4925C19.9256 11.1545 19.9256 10.7601 20.0382 10.4221C19.8129 10.5348 19.6439 10.7601 19.5876 11.0418L19.3622 12.1122L19.5312 12.2812L18.7426 12.2248C17.0525 12.1122 15.3061 12.2248 13.6161 12.5065L13.2217 12.5628L13.278 12.1685C13.447 10.8728 13.1653 9.57707 12.3767 8.56306C12.1513 8.28136 11.926 8.05606 11.6443 7.88704L11.7007 8.78837L11.081 8.16868C10.405 7.38004 9.50357 6.92931 8.48957 6.87303H7.86988ZM18.9115 10.3658C18.7425 10.4785 18.6299 10.7038 18.6299 10.9291C18.6299 11.2672 18.7425 11.5488 18.9679 11.7742L19.3059 12.1122L19.0242 11.0981C19.0242 11.0418 18.9679 10.7038 18.9115 10.3658Z" fill="#141516"/>
<path d="M18.7423 35.8291L19.1367 30.6463L23.5309 29.3506L23.0801 34.9841L18.7423 35.8291Z" fill="#E7B34E"/>
<path d="M19.1928 30.872C19.1928 30.872 22.9109 29.8016 23.0236 30.365C23.1363 30.9284 23.0799 32.224 23.0799 32.224L22.6293 34.6465C22.4603 34.8718 22.2349 35.0408 21.9533 35.1535C20.9392 35.3788 19.8688 35.6042 18.7985 35.7168V35.8859L23.0799 35.0971L23.5869 29.2383L21.9533 29.6889L19.1365 30.6467L19.1928 30.872Z" fill="#CF9D49"/>
<path d="M19.362 25.8017C18.9677 25.8017 18.6297 25.7454 18.2354 25.689C18.2354 25.689 16.827 25.4637 14.2919 24.9003C13.3342 24.675 12.6582 24.2806 12.3765 23.661C12.0948 23.0976 12.0948 22.4216 12.3201 21.8019C12.6018 21.1259 13.7849 18.7035 17.3903 19.0978C20.2071 19.4922 21.3901 20.7879 21.8971 21.7456C22.4041 22.5906 22.4605 23.6046 22.1225 24.506C21.6154 25.5764 20.3198 25.8017 19.362 25.8017ZM12.9962 22.1399C12.8835 22.5343 12.8835 22.9286 13.0525 23.2666C13.3906 23.7173 13.8976 24.0553 14.4609 24.1116C16.996 24.675 18.4044 24.9003 18.4044 24.9003C19.0804 25.013 20.9957 25.1257 21.4465 24.168C21.6718 23.4919 21.6154 22.7596 21.2211 22.1399C20.7704 21.2949 19.7564 20.2808 17.2776 19.8865C13.7849 19.4922 12.9962 22.0835 12.9962 22.1399Z" fill="#131415"/>
<path d="M13.222 19.6612C12.9403 19.6612 12.6586 19.6049 12.3769 19.5486C11.9263 19.4359 11.5319 19.1542 11.3629 18.7599C11.2502 18.1402 11.3629 17.5205 11.6446 17.0135C11.9826 16.3374 12.6586 15.9431 13.3909 15.9995C14.067 16.1121 14.574 17.0698 14.574 17.0698C14.7993 17.6332 15.1374 18.8725 13.9543 19.4922C13.729 19.6049 13.5036 19.6612 13.222 19.6612ZM13.898 19.2669C15.1374 18.3092 14.067 16.6755 13.4473 16.5065C12.8839 16.3938 12.3769 16.6191 12.0389 17.0698C11.6446 17.4642 11.4755 18.0839 11.6446 18.6472C11.8136 19.0415 12.0952 19.2106 12.6586 19.3233C13.0529 19.3796 13.5036 19.3796 13.898 19.2669Z" fill="#1D1D1B"/>
<path d="M23.4745 20.9569C22.7422 20.9569 21.6155 20.8442 21.2774 19.8301C21.1085 19.3231 21.5591 18.1964 22.0098 17.7458C22.5168 17.295 23.1928 17.0697 23.8689 17.2387C24.3759 17.4077 24.8266 17.8021 24.9955 18.3091C24.9955 18.3655 25.5589 19.9428 24.5449 20.7315C24.2069 20.9005 23.8689 20.9569 23.4745 20.9569ZM24.4322 20.5062C25.0519 20.0555 25.1646 18.0274 23.6435 17.7458C23.0802 17.5768 22.4605 17.8021 22.1225 18.2528C21.7282 18.7034 21.5028 19.2668 21.5591 19.8865C21.6155 20.2245 21.8971 20.5062 22.2352 20.5625C23.0239 20.8442 23.6999 21.0132 24.4322 20.5062Z" fill="#141516"/>
<path d="M14.1227 29.52C14.1227 29.52 17.5592 30.6467 17.8408 31.3227C18.1225 31.9987 18.0098 30.703 17.9535 30.6467C17.8972 30.5903 14.1227 29.2383 14.1227 29.2383V29.52Z" fill="#CF9D49"/>
<path d="M11.9819 16.1119C11.8129 15.8303 11.9255 15.4359 12.2072 15.2669C12.2072 15.2669 12.2072 15.2669 12.2636 15.2669C12.9396 15.0979 13.1086 15.5486 13.0523 15.5486C12.8833 15.4359 12.6016 15.4359 12.4326 15.5486C12.2072 15.6613 12.0382 15.8303 11.9819 16.1119Z" fill="#1D1D1B"/>
<path d="M24.094 16.8446C24.0377 16.7882 24.4884 16.3375 24.9391 16.6192C25.4461 17.0699 25.1081 17.4643 25.1081 17.4643C25.0518 17.2952 24.9954 17.0699 24.8264 16.9572C24.6011 16.7882 24.3758 16.7882 24.094 16.8446Z" fill="#000105"/>
<path d="M25.4468 16.8445C25.2777 16.2249 24.7144 15.8868 24.0947 15.9995C24.0384 15.9995 23.982 16.0558 23.9257 16.0558" fill="#94948E"/>
<path d="M18.348 27.0409C17.841 27.0409 17.3339 26.8719 16.9396 26.5339C16.8833 26.4776 16.8833 26.3649 16.9396 26.3086C16.996 26.2522 17.1086 26.2522 17.165 26.3086C17.5593 26.6465 18.0663 26.7592 18.5733 26.7029C19.1367 26.5902 19.7001 26.3649 20.1507 26.0269C19.8127 26.5339 19.2493 26.9282 18.6297 27.0409H18.348Z" fill="#141516"/>
<path opacity="0.3" d="M13.4473 23.2666C13.4473 23.2666 12.8276 20.1682 15.757 20.3372C13.6163 20.7316 13.4473 23.2666 13.4473 23.2666Z" fill="white"/>
<path d="M14.6863 12.1121L14.9116 10.4221L9.39078 7.43632L21.5028 4.33789L32.2065 10.1404L25.9533 11.8304L25.7843 13.6895C25.7843 13.6895 24.6576 12.6191 20.4324 12.1121C16.5454 11.7178 14.6863 12.1121 14.6863 12.1121Z" fill="#1D1D1B"/>
<path d="M25.7285 13.9714C25.6158 13.9714 25.5594 13.915 25.5032 13.8587C25.5032 13.8587 24.3764 12.8446 20.3203 12.3939C18.4613 12.1123 16.6022 12.1123 14.7432 12.3376C14.6305 12.3376 14.5741 12.3376 14.4615 12.2813C14.4051 12.2249 14.3488 12.1123 14.3488 11.9996L14.5178 10.5349L9.166 7.66183C9.05332 7.60549 8.99698 7.49281 8.99698 7.38013C8.99698 7.26745 9.10966 7.15476 9.22234 7.09848L21.3343 4H21.5597L32.2634 9.80253C32.376 9.85887 32.4323 9.97155 32.4323 10.0842C32.4323 10.1969 32.3197 10.3095 32.207 10.3659L26.1791 11.9996L26.0102 13.6897C26.0102 13.8023 25.9538 13.8587 25.8411 13.915C25.7848 13.9714 25.7848 13.9714 25.7285 13.9714ZM16.9965 11.6052C18.1232 11.6052 19.3063 11.6616 20.433 11.8306C23.3624 12.1686 24.8271 12.7883 25.5032 13.1263L25.6158 11.7743C25.6158 11.6616 25.7285 11.5489 25.8411 11.4926L31.362 9.97155L21.447 4.61968L10.18 7.49281L15.0248 10.1406C15.1375 10.1969 15.1938 10.3095 15.1938 10.4222L15.0248 11.7179C15.7008 11.6052 16.3205 11.6052 16.9965 11.6052Z" fill="#000105"/>
<path d="M25.7276 13.6899C25.7276 13.6899 26.0656 10.8168 26.0656 10.5914C22.6856 8.78874 18.7421 8.28167 15.024 9.2394L14.6859 11.9998C16.6577 11.7181 18.6294 11.7181 20.6012 12.0561C22.4039 12.2815 24.1502 12.8448 25.7276 13.6899Z" fill="#555555"/>
<path d="M26.0099 14.1404L25.6155 13.9714C24.0382 13.1827 22.3481 12.6757 20.6017 12.394C18.6863 12.056 16.7146 12.056 14.7992 12.3376L14.3485 12.394L14.7992 9.01389L14.9682 8.95755C18.7427 7.99982 22.7988 8.50689 26.2352 10.3659L26.4043 10.4223V10.6476C26.4043 10.8729 26.0662 13.746 26.0662 13.746L26.0099 14.1404ZM17.447 11.4926C18.5173 11.4926 19.6441 11.6053 20.7144 11.7743C22.4044 12.056 23.9819 12.563 25.5592 13.239C25.6155 12.563 25.7846 11.2673 25.8409 10.7603C22.6298 9.12657 18.9117 8.67585 15.4189 9.46455L15.1372 11.6617C15.926 11.549 16.6583 11.4926 17.447 11.4926Z" fill="#000105"/>
<path d="M13.6161 33.2943C12.6584 33.1817 11.8134 32.5057 11.5317 31.5479C11.1374 29.8015 12.3204 28.2805 15.0245 28.0552C15.0808 28.6185 15.0245 29.1255 14.9682 29.6325C14.9118 29.8579 14.0105 29.1819 13.9541 29.4636C13.6161 29.6325 14.1231 30.8719 13.9541 31.2099C13.6161 31.7733 13.5035 32.4493 13.6161 33.069C13.6725 33.069 13.7288 33.1253 13.7288 33.1817C13.7288 33.238 13.6725 33.2943 13.6161 33.2943Z" fill="#94948E"/>
<path d="M14.2917 29.1817L17.2211 30.2521L18.6858 30.5901L23.5869 29.238C23.5869 29.238 21.8968 28.562 21.8406 28.562C21.7842 28.562 18.4604 30.2521 18.4604 30.2521L16.883 29.3507L14.4606 28.731L14.2917 29.1817Z" fill="white"/>
<path d="M14.3485 28.1112C14.4049 28.1676 14.4612 28.2802 14.5176 28.3929C14.5739 28.5055 14.5739 28.6746 14.5176 28.7872C14.5739 28.7872 14.8555 28.9562 14.9119 28.7872C14.9682 28.5055 14.9682 28.2802 14.9682 27.9985L14.3485 28.1112C14.4612 28.1112 14.5176 28.1112 14.6302 28.0549L14.3485 28.1112Z" fill="#5E5E5E"/>
<path d="M18.7423 35.9985H18.1226C16.4889 35.9422 14.9115 35.6042 13.4468 34.9845C13.3342 34.9282 13.2215 34.8155 13.2778 34.7028L13.6722 29.0693C13.6722 28.9567 13.7285 28.9004 13.8412 28.844C13.9539 28.7877 14.0102 28.7877 14.1228 28.844C14.1792 28.844 17.0523 30.1397 18.0663 30.3087C18.4043 30.365 18.686 30.365 19.024 30.3087C20.545 29.9707 22.0098 29.52 23.4182 28.9567C23.4744 28.9004 23.5871 28.844 23.6998 28.9004C23.8125 28.9567 23.9252 29.0693 23.9252 29.2383L23.7561 34.9845C22.1788 35.6042 20.4887 35.9422 18.7423 35.9985ZM13.8975 34.4775C15.2496 34.9845 16.7142 35.3225 18.179 35.3788C19.7563 35.4352 21.3337 35.2662 22.7985 34.7592L23.2491 29.6327C22.7985 29.8017 22.3477 29.9707 21.8407 30.0834C20.9394 30.365 20.038 30.6467 19.1366 30.8157C18.7423 30.8721 18.348 30.8721 17.9536 30.8157C16.6579 30.4777 15.4185 30.027 14.2355 29.4637L13.8975 34.4775Z" fill="#000105"/>
<path d="M18.4611 30.4773L18.2921 30.3083C17.4471 29.6886 16.4331 29.2943 15.419 29.1253C15.0247 29.0126 14.574 29.069 14.1796 29.2943L13.7853 28.8436C14.2923 28.5056 14.912 28.3929 15.5317 28.562C16.602 28.7873 17.6161 29.1816 18.5174 29.745C19.2498 29.2943 21.4469 28.1112 22.2919 28.3929C22.7426 28.562 23.2496 28.7309 23.7003 28.8999L23.4749 29.4633C23.4749 29.4633 22.3482 29.069 22.1229 29.0126C21.6158 28.8436 19.8131 29.745 18.6301 30.421L18.4611 30.4773Z" fill="#000105"/>
<path d="M17.6159 35.6604L18.7426 35.7167L19.0243 30.7029C19.0243 30.7029 17.9539 30.5902 17.9539 30.7029L17.6159 35.6604Z" fill="#E7B34E"/>
<path d="M18.7422 35.9983L17.6155 35.9419C17.5029 35.9419 17.4465 35.8856 17.3902 35.8293C17.3339 35.773 17.3339 35.6603 17.3339 35.604L17.6719 30.5901C17.6719 30.4775 17.7282 30.4211 17.7846 30.3648C17.8972 30.3084 17.9536 30.1958 19.0803 30.3084C19.2493 30.3084 19.3619 30.4775 19.3619 30.6465L19.0803 35.7166C19.0239 35.8293 18.9112 35.9983 18.7422 35.9983ZM17.9536 35.3786H18.4606L18.6859 30.9281H18.2352L17.9536 35.3786Z" fill="#000105"/>
<path opacity="0.7" d="M11.7565 31.4913C11.9743 31.4913 12.1509 31.113 12.1509 30.6463C12.1509 30.1796 11.9743 29.8013 11.7565 29.8013C11.5388 29.8013 11.3622 30.1796 11.3622 30.6463C11.3622 31.113 11.5388 31.4913 11.7565 31.4913Z" fill="white"/>
<path d="M13.2781 33.9137C13.7851 34.1954 15.0245 34.308 14.7991 33.5193C14.7428 33.1249 13.7851 33.0686 13.3908 33.1249C13.2217 33.1813 12.7711 33.632 13.2781 33.9137Z" fill="#94948E"/>
<path d="M13.8972 32.6745C14.1789 32.6182 14.5169 32.6182 14.7986 32.6745C14.7986 32.7308 14.9676 33.2942 14.9113 33.2942C14.8549 33.2942 14.5732 33.6885 14.4042 33.6322C14.0099 33.5195 13.6719 33.4632 13.2775 33.4068C13.2212 33.3505 12.8832 33.1815 12.8832 33.0689C12.8832 32.9562 12.9396 32.5055 12.9959 32.5055C13.0522 32.5055 13.2775 32.4492 13.2775 32.5055C13.5029 32.5618 13.6719 32.6182 13.8972 32.6745Z" fill="#94948E"/>
<path d="M13.8972 31.8297C13.9536 31.548 14.7986 31.9988 14.7986 32.055C14.7986 32.1114 14.9676 32.6747 14.9113 32.6747C14.8549 32.6747 14.5732 33.0691 14.4042 33.0128C14.2353 32.9564 13.3902 32.7874 13.2775 32.7874C13.1649 32.7874 12.8832 32.5621 12.8832 32.4494C12.8832 32.3367 12.9396 31.8861 12.9959 31.8861C13.0522 31.8861 13.1649 31.4353 13.1649 31.4917L13.8972 31.8297Z" fill="#94948E"/>
<path d="M13.4469 34.0265C13.4469 34.0265 13.3906 33.9702 13.3906 33.6322C13.3906 33.2942 13.0526 33.4631 12.9962 33.4631C12.9962 33.6322 13.0526 33.8012 13.1089 33.9702C13.1653 34.0265 13.4469 34.0265 13.4469 34.0265Z" fill="#94948E"/>
<path opacity="0.9" d="M13.4469 32.4492C13.4469 32.3366 13.4469 32.2239 13.5032 32.1112C13.6159 31.9986 13.7849 31.8859 13.9539 31.8859C13.9539 31.8859 13.8412 31.8295 13.8412 31.8859C13.8412 31.9422 13.2779 31.9422 13.2779 31.9422L13.1652 32.3929L13.4469 32.4492Z" fill="white"/>
<path opacity="0.9" d="M13.4468 34.0265C13.3904 33.9138 13.3341 33.7449 13.3341 33.6322C13.3904 33.4632 12.996 33.5759 12.996 33.5759C12.996 33.5759 12.7707 34.1392 12.8271 34.1392C12.8834 34.1392 13.4468 34.0265 13.4468 34.0265Z" fill="white"/>
<path opacity="0.9" d="M13.3343 33.2378C13.2779 33.0688 13.2779 32.8999 13.3343 32.7308C13.4469 32.4491 12.9962 32.6182 12.9962 32.6182L13.1653 33.3505L13.3343 33.2378Z" fill="white"/>
<path d="M14.3485 31.9983C14.5176 32.111 14.5739 32.3363 14.4612 32.5053C14.4612 32.5616 14.4049 32.5616 14.4049 32.618C14.7429 32.956 14.8555 32.1673 14.8555 32.1673C14.8555 32.1673 14.8555 31.942 14.3485 31.9983Z" fill="#5E5E5D"/>
<path d="M14.3485 32.8435C14.5176 32.9562 14.5739 33.1815 14.4612 33.3505C14.4612 33.4068 14.4049 33.4068 14.4049 33.4632C14.7429 33.8012 14.8555 33.0125 14.8555 33.0125C14.8555 33.0125 14.8555 32.7308 14.3485 32.8435Z" fill="#5E5E5D"/>
<path d="M14.2918 33.6321C14.2918 33.6321 14.3481 33.8575 14.0102 34.1392C14.3481 34.4208 14.7989 33.7448 14.7989 33.7448C14.7989 33.7448 14.7425 33.5758 14.2918 33.6321Z" fill="#5E5E5D"/>
<path d="M15.0804 28.7874L14.5734 28.7311C14.6297 28.2804 14.7988 27.8297 15.0804 27.4917L15.5311 27.6044C15.3058 27.9424 15.1931 28.3367 15.0804 28.7874Z" fill="#000105"/>
<path d="M22.4047 28.9002C22.3483 28.6186 22.2356 28.3932 22.123 28.1116L22.6864 27.8862C22.6864 27.9426 22.968 28.7313 22.968 28.7313L22.4047 28.9002Z" fill="#000105"/>
<path d="M12.8276 33.3507C12.7713 33.2944 10.9685 31.717 11.0249 30.365C11.4193 27.9426 14.743 27.4355 14.912 27.4355L15.081 27.9989C15.0247 27.9989 11.7572 28.3932 11.4193 30.365C11.3629 31.21 12.6023 32.6184 12.9966 32.9L12.8276 33.3507Z" fill="#000105"/>
<path d="M14.2359 33.1254C13.8979 33.1254 13.5599 33.0691 13.2219 32.9001C12.9402 32.7311 12.8275 32.4494 12.8275 32.1677C12.8839 31.8297 13.1092 31.6044 13.4472 31.548C13.9542 31.4354 14.4612 31.4917 14.912 31.7734C15.0246 31.8861 15.1373 31.9987 15.1373 32.1677C15.2499 32.4494 15.1373 32.7874 14.912 32.9564C14.7429 33.0691 14.4612 33.1254 14.2359 33.1254ZM13.8979 32.0551H13.5599C13.5599 32.0551 13.4472 32.1677 13.4472 32.224L13.5599 32.3367C13.8979 32.5058 14.2923 32.5621 14.6303 32.4494C14.6303 32.4494 14.6866 32.3931 14.6303 32.2804V32.224C14.5739 32.1114 14.2359 32.0551 13.8979 32.0551Z" fill="#000105"/>
<path d="M14.2362 33.9139C13.8419 33.9139 13.4475 33.8012 13.1095 33.6322C12.8278 33.4632 12.6588 33.1815 12.6588 32.8998C12.6588 32.6182 12.7715 32.3365 13.0532 32.1675L13.3349 32.6745C13.2785 32.6745 13.2222 32.8435 13.2785 32.9562C13.3349 33.0689 13.3349 33.0689 13.3912 33.1252C13.7292 33.3506 14.1799 33.4068 14.5742 33.2379C14.6869 33.0689 14.6869 32.8435 14.5742 32.6745L15.1376 32.4492C15.2503 32.7872 15.2503 33.1815 15.0812 33.5195C14.9686 33.6886 14.7995 33.8012 14.5742 33.8576C14.4616 33.8576 14.3489 33.9139 14.2362 33.9139Z" fill="#000105"/>
<path d="M13.785 34.5334C13.3907 34.5334 12.7146 34.1391 12.6583 33.8574C12.6019 33.5757 12.771 33.294 12.9963 33.125L13.278 33.4067L13.2216 33.3504L13.278 33.4067C13.1653 33.463 13.2216 33.7447 13.1653 33.801C13.5597 34.0827 14.123 34.0827 14.461 33.7447C14.5173 33.6884 14.5173 33.5757 14.5173 33.5194L15.0807 33.4067C15.1934 33.6884 15.0807 34.0264 14.8554 34.1954C14.5737 34.4207 14.1794 34.5334 13.785 34.5334Z" fill="#000105"/>
<path opacity="0.7" d="M25.9536 31.942C26.1713 31.942 26.3479 31.5637 26.3479 31.097C26.3479 30.6303 26.1713 30.252 25.9536 30.252C25.7358 30.252 25.5592 30.6303 25.5592 31.097C25.5592 31.5637 25.7358 31.942 25.9536 31.942Z" fill="white"/>
<path d="M23.813 32.2804C23.7567 31.9987 22.9117 32.4494 22.9117 32.5058C22.9117 32.5621 22.7427 33.1254 22.799 33.1254C22.8553 33.1254 22.7427 34.5901 22.9117 34.5338C23.0807 34.4775 25.2214 35.0971 24.4327 33.2381C24.3764 33.1817 24.8271 33.0128 24.8271 32.9001C24.8271 32.7874 24.7707 32.3368 24.7144 32.3368C24.6581 32.3368 24.5454 31.886 24.5454 31.9424L23.813 32.2804Z" fill="#94948E"/>
<path opacity="0.9" d="M24.2065 32.8997C24.2065 32.787 24.2065 32.6744 24.1502 32.5617C24.0375 32.4491 23.9248 32.3927 23.7558 32.3927C23.7558 32.3927 23.8685 32.3364 23.8685 32.3927C23.8685 32.4491 24.4318 32.4491 24.4318 32.4491L24.5445 32.8997H24.2065Z" fill="#5D5D5C"/>
<path opacity="0.9" d="M23.8688 34.4772C23.9251 34.3645 23.9815 34.1955 23.9815 34.0829C23.9251 33.9139 24.6575 34.0265 24.6575 34.0265C24.4886 34.2518 24.3195 34.4209 24.1505 34.5899C24.0942 34.6462 23.8688 34.4772 23.8688 34.4772Z" fill="#5D5D5C"/>
<path opacity="0.9" d="M24.3197 33.6884C24.3761 33.5194 24.3761 33.3504 24.3197 33.1814C24.2634 32.956 24.7141 33.0687 24.7141 33.0687L24.5451 33.8011L24.3197 33.6884Z" fill="#5D5D5C"/>
<path d="M24.8267 33.6886L24.6013 33.3506C24.9957 33.0689 26.3477 31.8295 26.3477 30.9845C26.0097 29.0691 22.4606 28.3931 22.4606 28.3931L22.5169 27.9424C22.6859 27.9424 26.2914 28.3931 26.6857 30.9282V30.9845C26.7421 32.3929 25.052 33.5759 24.8267 33.6886Z" fill="#000105"/>
<path d="M23.4742 33.6322C23.1926 33.6322 22.9672 33.5759 22.7419 33.4069C22.5165 33.1816 22.4038 32.8435 22.5165 32.5619C22.5165 32.3929 22.6292 32.2802 22.7419 32.1675C23.1925 31.9422 23.6996 31.8859 24.2066 31.9422C24.4883 31.9985 24.7136 32.2802 24.7699 32.5619C24.8262 32.8999 24.6573 33.2378 24.3756 33.4069C24.0939 33.5195 23.8122 33.6322 23.4742 33.6322ZM23.8122 32.5055C23.4742 32.5055 23.1362 32.5619 23.0799 32.6745C23.0235 32.7308 23.0235 32.7872 23.0235 32.8435C23.0235 32.8999 23.0799 32.9562 23.1362 32.9562C23.4742 33.0689 23.8122 33.0689 24.0939 32.8999C24.2066 32.8435 24.2066 32.7872 24.2066 32.7308C24.2066 32.6745 24.2066 32.5055 23.8122 32.5055Z" fill="#000105"/>
<path d="M23.4747 34.3646C23.362 34.3646 23.193 34.3646 23.0803 34.3083C22.9114 34.2519 22.7423 34.1392 22.6297 33.9702C22.4606 33.6322 22.4606 33.2378 22.5733 32.8999L23.1367 33.1252C23.024 33.2942 23.024 33.5196 23.1367 33.6886C23.193 33.8013 23.869 33.8013 24.3197 33.5759C24.376 33.5196 24.4324 33.4632 24.4324 33.4069C24.4324 33.2942 24.4324 33.2378 24.376 33.1252L24.6577 32.6182C24.883 32.7872 25.0521 33.0689 25.0521 33.3505C25.0521 33.6886 24.883 33.9702 24.6014 34.0829C24.2633 34.2519 23.869 34.3646 23.4747 34.3646Z" fill="#000105"/>
<path d="M9.78518 18.7036L9.22183 18.5346C9.27817 18.3092 11.3062 12.3377 13.8413 11.9434L14.2357 12.3941C12.4329 12.6194 10.3485 17.0699 9.78518 18.7036Z" fill="#000105"/>
<path opacity="0.7" d="M15.4183 9.46473L15.1366 11.6618L15.5873 11.6054C15.6436 10.8731 15.7 10.0844 15.869 9.35205C15.7 9.35205 15.5873 9.35205 15.4183 9.46473Z" fill="white"/>
<path d="M18.5733 35.9982C11.5878 36.1109 5.84158 30.5901 5.72891 23.6045C5.72891 23.5482 5.72891 23.4355 5.72891 23.3792H6.3486C6.3486 30.1393 11.7568 35.3785 18.6297 35.3785C25.6715 35.3785 31.5304 29.407 31.5304 22.9285L32.0937 22.7031C32.0937 26.0833 30.7417 29.914 28.1502 32.3364C25.5025 34.6462 22.1224 35.9419 18.5733 35.9982Z" fill="#000105"/>
<path d="M28.4324 21.3514C28.2634 21.3514 28.1507 21.295 28.1507 21.1261C28.1507 21.0697 28.1507 21.0697 28.1507 21.0134C28.8268 15.9996 25.7283 14.0278 25.6156 13.9715C25.503 13.9151 25.4466 13.6898 25.503 13.5772C25.5593 13.4645 25.7846 13.4081 25.8973 13.4645C26.0663 13.5772 29.4464 15.7179 28.7141 21.1261C28.7141 21.2387 28.5451 21.3514 28.4324 21.3514Z" fill="#141516"/>
<path d="M22.855 35.2098C22.5733 35.1534 22.686 35.0971 22.6297 34.9845C22.4606 34.6464 22.4606 34.2521 22.5733 33.9141L23.1367 34.1394C23.024 34.3084 23.024 34.5337 23.1367 34.7028C23.193 34.8154 24.376 34.1394 24.376 34.1394C23.869 34.5337 23.362 34.8718 22.855 35.2098Z" fill="#000105"/>
</svg>
