<svg width="120" height="40" viewBox="0 0 120 40" fill="none" xmlns="http://www.w3.org/2000/svg">
<path d="M29.8656 23.0096C29.8656 30.1642 23.7251 35.9103 16.627 35.9103C9.52872 35.9103 4.06421 30.1078 4.06421 23.0096C4.06421 15.9114 9.81036 10.1089 16.9649 10.1089C24.1195 10.1089 29.8656 15.8551 29.8656 23.0096Z" fill="#89B75E"/>
<path d="M16.6269 36.192C9.41596 36.192 3.78247 30.3894 3.78247 23.0095C3.78247 15.7423 9.69767 9.82715 16.9649 9.82715C24.2321 9.82715 30.1473 15.7423 30.1473 23.0095C30.1473 26.5586 28.6825 29.9388 26.0912 32.3612C23.5561 34.8399 20.176 36.192 16.6269 36.192ZM16.9649 10.3905C9.97931 10.3905 4.34582 16.024 4.34582 23.0095C4.34582 30.0514 9.75401 35.6286 16.6269 35.6286C23.6687 35.6286 29.5839 29.8824 29.5839 23.0095C29.5839 16.024 23.9504 10.3905 16.9649 10.3905C17.0212 10.3905 16.9649 10.3905 16.9649 10.3905Z" fill="#000105"/>
<path d="M22.1479 33.8257C23.1056 33.713 23.9506 33.0371 24.2323 32.0793C24.6266 30.333 23.2183 28.9246 20.5142 28.6992C20.5705 29.4316 20.7395 30.1639 21.0212 30.8963C22.0915 31.4597 21.5282 33.206 21.3029 33.4314C21.1902 33.5441 22.0352 33.8821 22.1479 33.8257Z" fill="#94948E"/>
<path d="M21.3594 28.8681C21.3031 28.9244 21.2467 29.0371 21.1904 29.1498C21.1341 29.2624 21.1341 29.4314 21.1904 29.5441C21.1341 29.5441 20.8524 29.7131 20.796 29.5441C20.7397 29.2624 20.7397 29.0371 20.7397 28.7554L21.3594 28.8681C21.2468 28.8681 21.1904 28.8681 21.0777 28.8117L21.3594 28.8681Z" fill="#5E5E5E"/>
<path d="M17.3029 12.6999C17.3029 12.6999 15.3312 11.4042 17.1339 10.2212C17.2465 10.5592 17.3592 10.8972 17.4719 11.2352C17.5846 10.7282 17.9789 10.3902 18.4859 10.3339C18.4859 10.3339 18.0353 11.5169 18.4296 11.6859C18.4859 11.4042 18.7113 11.2352 18.993 11.1789C18.993 11.1789 18.5423 10.8409 19.331 11.0662C19.331 11.0662 18.4859 11.9676 18.6549 12.4182C18.6549 12.4746 18.7113 12.4746 18.7113 12.5309C18.2606 12.6436 17.8099 12.6999 17.3029 12.6999Z" fill="#94948E"/>
<path d="M22.9927 14.1648C22.9927 14.1648 23.2744 8.98197 28.5699 7.91162C28.5699 7.91162 28.0629 8.19326 27.9502 8.53131C29.8656 7.85528 32.0064 8.2496 33.5837 9.54531C33.1331 9.37629 32.6824 9.31995 32.2317 9.31995C34.3724 10.7847 35.3301 13.4324 34.7667 15.9675C34.7667 15.9675 34.7667 17.3196 34.4851 16.9252C34.4288 17.6576 34.0344 18.3336 33.471 18.7842C33.471 18.7842 31.8373 22.7277 25.1898 21.094C20.1197 19.9673 22.9927 14.1648 22.9927 14.1648Z" fill="#94948E"/>
<path opacity="0.4" d="M22.9927 14.221C22.9927 14.221 23.2743 9.03812 28.5698 7.96777C28.5698 7.96777 28.0628 8.24941 27.9502 8.58746C29.8656 7.91143 32.0063 8.30576 33.5837 9.60147C33.1329 9.43244 32.6823 9.3761 32.2316 9.3761C32.2316 9.3761 36.6257 12.5309 34.4287 16.8123C34.4287 16.8123 34.3723 18.3334 33.4146 19.0094C33.4146 19.0094 31.8936 22.7275 25.2461 21.1501C20.1196 20.0234 22.9927 14.221 22.9927 14.221Z" fill="#5E5E5D"/>
<path d="M11.3315 14.2775C11.3315 14.2775 12.7962 9.54541 9.13448 7.57368C9.30344 7.7427 9.35978 7.96806 9.35978 8.2497C9.35978 8.2497 6.88104 6.05266 4.68399 7.17935C4.68399 7.17935 5.64169 7.29203 5.75436 7.461C5.75436 7.461 1.52923 8.30604 1.24756 12.2495C1.24756 12.2495 1.24756 15.0662 2.20525 15.6859C2.20525 15.6859 3.44463 18.1083 7.78243 18.897C12.1202 19.6857 11.3315 14.2775 11.3315 14.2775Z" fill="#94948E"/>
<path d="M10.8248 13.4324C10.8248 13.4324 10.4304 9.88332 7.33199 8.98193L7.67003 9.88332C6.82498 9.82698 6.0363 10.1086 5.41661 10.672C4.57159 11.2353 3.95191 12.1367 3.72656 13.1507C3.55756 13.8831 3.6139 17.1505 7.38833 18.4462C11.1628 19.7419 10.8248 13.4324 10.8248 13.4324Z" fill="#E1D4DD"/>
<path d="M10.5425 14.2212C10.5425 14.2212 10.5425 10.7848 7.16244 11.0101L7.44408 11.7988C7.16244 11.7988 6.88074 11.8551 6.65544 11.9678C5.30337 12.5875 5.0217 14.2775 5.0217 14.5029C5.0217 14.5029 4.79635 17.1506 7.78213 17.7703C8.17645 17.883 8.62711 17.8267 9.0215 17.6576C9.92282 17.207 11.0496 16.2493 10.5425 14.2212Z" fill="white"/>
<path d="M10.1483 14.5029C10.3173 13.4326 9.58498 12.4185 8.51457 12.2495C8.45823 12.2495 8.34561 12.2495 8.28927 12.2495C8.28927 12.2495 8.45823 12.5312 8.62725 12.8692C8.00757 12.8692 7.38788 13.2072 7.0499 13.7142C6.54284 14.6156 6.88088 15.7423 7.78221 16.193C8.06391 16.3057 8.34561 16.4183 8.62725 16.4183C9.02158 16.5873 10.1483 14.5029 10.1483 14.5029Z" fill="#5E5E5E"/>
<path d="M24.2317 15.4607C24.2317 15.4607 24.6261 11.9116 27.7245 11.0103L27.3864 11.9116C28.2315 11.8552 29.0202 12.1369 29.6399 12.7003C30.4849 13.2636 31.1045 14.165 31.3299 15.179C31.4989 15.9114 31.4426 19.1788 27.6681 20.4745C23.8937 21.7702 24.2317 15.4607 24.2317 15.4607Z" fill="#E1D4DD"/>
<path d="M24.5135 16.2491C24.5135 16.2491 24.5135 12.8126 27.8937 13.038L27.612 13.8266C27.8937 13.8266 28.1753 13.8829 28.4007 13.9956C29.7527 14.6153 30.0344 16.3053 30.0344 16.5307C30.0344 16.5307 30.2597 19.1785 27.274 19.7982C26.8796 19.9108 26.4289 19.8545 26.0346 19.6855C25.1332 19.2348 24.0065 18.2771 24.5135 16.2491Z" fill="white"/>
<path d="M24.908 16.5307C24.739 15.4604 25.4714 14.4464 26.5417 14.2773C26.5981 14.2773 26.7108 14.2773 26.7671 14.2773C26.7671 14.2773 26.5981 14.559 26.4291 14.897C27.0487 14.897 27.6684 15.235 28.0065 15.7421C28.5135 16.6434 28.1754 17.7701 27.2741 18.2208C26.9924 18.3334 26.7108 18.4461 26.4291 18.4461C26.0347 18.6151 24.908 16.5307 24.908 16.5307Z" fill="#5E5E5E"/>
<path d="M7.05031 22.2205C7.05031 22.2205 6.43063 27.178 13.2472 27.7977C21.1904 28.53 23.1058 28.7554 24.7395 26.7836C25.6409 25.7133 28.6266 16.925 23.3874 13.8266C21.9227 13.2069 20.458 12.7562 18.8807 12.5309C18.1483 12.4182 18.0356 12.5309 17.3596 12.4182C13.6978 11.9675 11.0501 12.7562 10.4867 13.3196C9.58539 14.3336 7.16293 19.9108 7.05031 22.2205Z" fill="#94948E"/>
<g opacity="0.4">
<path opacity="0.4" d="M11.8389 27.3472C19.7821 28.3048 23.1059 28.5865 24.7396 26.6148C25.641 25.5445 29.4717 14.8408 21.2468 13.0381C21.2468 13.0381 26.5986 16.2492 24.4016 23.291C22.4862 28.9809 11.8389 27.3472 11.8389 27.3472Z" fill="#5E5E5E"/>
</g>
<path d="M7.89498 25.2062C8.28936 26.2202 9.07806 27.2906 14.2045 27.9103C18.0916 28.4173 21.2464 28.4173 22.7675 27.347C24.5138 26.0513 24.5702 21.7135 21.8097 20.4178C19.0494 19.1221 13.1342 17.9954 9.52873 20.7558C8.064 21.8261 7.44431 23.8542 7.89498 25.2062Z" fill="#DCD8CD"/>
<path d="M12.4582 18.9534C12.2892 19.5731 11.5568 19.8547 10.7118 19.6294C9.86681 19.404 9.47243 19.0097 9.64145 18.221C9.81047 17.4323 10.6555 16.6437 11.4442 16.8126C12.2329 16.9816 12.6272 18.1083 12.4582 18.9534Z" fill="white"/>
<path d="M12.5144 19.1225C12.4581 19.5169 12.1201 19.7986 11.7258 19.7986C11.6695 19.7986 11.6131 19.7986 11.5568 19.7422C11.1061 19.5732 10.8807 19.1225 11.0498 18.6719C11.1624 18.2775 11.5568 17.9959 11.9511 18.1085C12.3455 18.2775 12.5708 18.6719 12.5144 19.1225Z" fill="#1F201E"/>
<path d="M20.0072 24.3616C19.6129 25.9953 17.2468 26.1643 15.0497 25.601C12.8527 25.0376 9.69794 25.0939 10.881 21.7702C11.2753 20.5871 13.5287 19.5731 15.7821 19.9111C18.7115 20.4182 20.4016 22.7279 20.0072 24.3616Z" fill="#1F201E"/>
<path d="M22.8236 20.3055C22.5983 21.0379 21.7532 21.3195 20.7956 21.0379C19.8378 20.7562 19.3872 20.3055 19.6689 19.4041C19.9505 18.4465 20.8519 17.8268 21.8659 17.9395C22.8236 18.1648 23.1053 19.3478 22.8236 20.3055Z" fill="white"/>
<path d="M21.4151 20.3616C21.3589 20.8124 20.9081 21.1504 20.4011 21.094C20.3448 21.094 20.2885 21.094 20.2321 21.0377C19.7251 20.8124 19.4998 20.249 19.6688 19.742C19.8378 19.2913 20.2885 19.0659 20.7392 19.1786C21.2462 19.2913 21.5842 19.7983 21.4151 20.3616C21.4151 20.3053 21.4151 20.3053 21.4151 20.3616Z" fill="#1F201E"/>
<path d="M29.5842 8.13672C32.7953 8.81274 32.3447 9.26347 32.5137 9.31975C32.739 9.31975 33.0207 9.31975 33.2461 9.26347C31.6686 8.13672 31.4996 8.36208 29.5842 8.13672Z" fill="#5E5E5D"/>
<path d="M13.4719 27.7979C13.2465 28.5302 11.0494 32.4736 12.7395 35.5157C13.4719 35.7974 20.4574 35.7411 20.4574 35.6284C20.4574 35.5158 21.9221 33.882 21.8657 33.1497C21.8094 32.4173 20.6264 28.8119 20.4574 28.2485C20.2884 28.5866 13.4719 27.7979 13.4719 27.7979Z" fill="#94948E"/>
<g opacity="0.9">
<path opacity="0.9" d="M13.5288 28.9244C13.5288 28.5301 13.6415 28.1921 13.8105 27.8541C14.0359 27.5724 13.4726 27.7977 13.4726 27.7977L13.1345 28.9244L13.5852 29.1498L13.5288 28.9244Z" fill="white"/>
</g>
<path d="M20.402 28.3615C20.4582 28.4741 20.6273 29.0375 20.6273 29.0375L20.1203 28.9812C20.1203 28.9812 19.8949 28.4178 19.6696 28.3615C19.4442 28.3051 20.402 28.3615 20.402 28.3615Z" fill="#5E5E5D"/>
<path opacity="0.4" d="M12.4583 35.6849C12.4583 35.6849 14.3173 35.7413 15.444 35.8539C16.1764 35.9666 16.8524 36.023 17.5848 35.9103C18.2044 35.7976 19.8945 35.9103 20.7958 35.4032C21.6408 33.8822 21.7535 32.0232 21.1338 30.3895C21.0212 29.7698 20.9085 29.3191 20.9085 29.3191C20.9085 29.3191 21.1338 29.2064 20.8521 31.8541C20.4578 34.7273 17.134 36.53 12.4583 35.6849Z" fill="#5E5E5E"/>
<path d="M11.9511 18.8968C12.1067 18.8968 12.2328 18.7707 12.2328 18.6151C12.2328 18.4596 12.1067 18.3335 11.9511 18.3335C11.7955 18.3335 11.6694 18.4596 11.6694 18.6151C11.6694 18.7707 11.7955 18.8968 11.9511 18.8968Z" fill="white"/>
<path d="M20.6269 20.0238C20.7824 20.0238 20.9086 19.8977 20.9086 19.7422C20.9086 19.5866 20.7824 19.4604 20.6269 19.4604C20.4713 19.4604 20.3452 19.5866 20.3452 19.7422C20.3452 19.8977 20.4713 20.0238 20.6269 20.0238Z" fill="white"/>
<path d="M32.9075 9.77051C33.6962 11.0662 34.2032 12.4746 34.4285 13.9393C34.5976 15.3477 34.3722 16.8124 33.8089 18.1081C34.1468 17.3757 34.4849 16.587 34.8792 15.8547L34.4849 11.9113L32.9075 9.77051Z" fill="#5D5D5C"/>
<path opacity="0.8" d="M9.58499 8.7567C8.57098 7.74264 7.21893 7.17929 5.81054 7.29197C3.3318 7.34831 5.13452 7.01027 5.13452 7.01027L7.27527 6.84131C7.27527 6.84131 8.90896 7.79898 9.02164 7.85532L9.41597 8.24964L9.58499 8.7567Z" fill="white"/>
<path d="M15.5565 36.0229C15.5565 35.7412 16.2325 31.1217 15.8381 30.9527C15.4438 30.7837 12.0074 29.3753 12.0638 29.5443C12.12 29.7133 11.613 35.1215 11.613 35.1215L15.5565 36.0229Z" fill="#E7B34E"/>
<path d="M11.7827 34.8963C11.7827 34.8963 13.022 34.7273 13.022 34.2766C13.022 33.8259 11.7263 34.5019 11.7263 34.5583C11.7263 34.6146 11.7827 34.8963 11.7827 34.8963Z" fill="#8AA15E"/>
<path opacity="0.9" d="M13.4158 12.5309C13.4158 12.5309 10.7117 11.9676 9.69765 14.3899C8.96528 15.911 8.28926 17.432 7.72591 19.0094C7.72591 19.0094 6.37385 23.0092 7.16257 24.1359C7.27519 23.1782 7.44421 22.2205 7.72591 21.2628C9.02162 15.1787 10.5426 14.4463 10.768 14.1083C11.3313 13.3759 11.5567 12.6436 13.4158 12.5309Z" fill="white"/>
<path d="M19.1618 11.1792C19.1618 11.1792 18.0914 11.8552 18.6548 12.5312H18.7675L19.1618 11.1792Z" fill="#5D5D5C"/>
<path opacity="0.8" d="M17.1901 12.4747C17.1901 12.4747 16.345 11.2353 17.0211 10.334C16.7394 10.4467 16.514 10.672 16.4014 10.9537L16.6267 12.2494L17.1901 12.4747Z" fill="white"/>
<path d="M20.0635 28.5301C19.1622 28.5301 18.2045 28.4738 17.3031 28.3611C14.2047 28.0794 11.7823 27.7978 11.6696 27.7415C9.97953 27.5724 8.45852 26.6711 7.44445 25.3191C6.43044 23.798 6.31777 21.6572 7.16281 19.0095C6.93745 18.9532 6.71215 18.8969 6.54312 18.7842C4.23338 17.9955 3.27569 17.6575 1.81097 15.4604C0.684274 13.6577 0.74061 11.4043 1.92365 9.65792C2.59967 8.64385 3.55736 7.85515 4.7404 7.51717H4.68406L3.67003 7.29181L4.62772 6.89748C5.24741 6.61578 5.92343 6.50316 6.59947 6.5595C7.27549 6.61578 7.89517 6.7848 8.45852 7.12284L8.2895 6.84114L9.24723 7.34815C9.86691 7.62985 10.4303 8.02417 10.8809 8.53117C11.6696 9.54524 12.0639 10.8973 11.9513 12.193C13.3597 12.024 14.768 11.9676 16.1764 11.9676C16.0638 11.7423 16.0074 11.4606 16.0074 11.1789C16.1201 10.6156 16.5144 10.1086 17.0214 9.82688L17.5848 9.4889L17.4721 10.1649V10.5029C17.8101 10.1649 18.2608 10.0522 18.7115 10.1086L19.3311 10.1649L18.9368 10.6156C18.8241 10.7846 18.7115 10.8973 18.6552 11.0099C18.8805 10.8973 19.1622 10.841 19.3875 10.9536L19.8382 11.0663L19.5002 11.4043C19.2749 11.6296 19.1622 11.9113 19.0495 12.193C20.2889 12.4746 21.5282 12.8127 22.7676 13.207C22.993 12.1367 23.6127 9.93956 25.697 8.64385C26.5421 8.08051 27.4997 7.79887 28.5138 7.68619L29.3025 7.62985L28.9645 7.91149C29.3588 7.85515 29.6968 7.79887 30.0911 7.79887C31.4432 7.85515 32.7389 8.36221 33.7529 9.26354L34.6543 10.0522L33.4713 9.77054C33.4149 9.77054 33.3586 9.77054 33.3022 9.7142C34.1473 10.5029 34.767 11.5733 34.9923 12.7563C35.2176 14.221 35.105 15.7421 34.7106 17.2068C34.1473 18.5025 33.2459 19.6856 32.1756 20.5869C30.2038 22.108 27.7251 21.8826 26.6547 21.6572C26.6547 21.7699 26.5984 21.8263 26.5984 21.9389C26.4294 23.3473 26.0351 24.6994 25.4154 25.995C24.683 27.4598 23.7253 28.5301 20.0635 28.5301ZM5.92343 7.17918L6.76849 7.51717L5.92343 7.74253C5.8671 7.74253 5.8671 7.74253 5.81076 7.79887C5.19107 7.96783 3.38835 8.41855 2.487 10.0522C1.41663 11.5733 1.3603 13.6577 2.37432 15.2351C3.72637 17.2631 4.51506 17.5448 6.82477 18.3335C7.10647 18.4462 7.38817 18.5025 7.72615 18.6152L8.17682 18.1081L7.72615 19.2348C6.82477 21.8263 7.05013 23.629 8.00786 25.0374C9.24723 26.9528 11.7822 27.1781 11.7822 27.1781C11.7822 27.1781 14.261 27.4598 17.4157 27.7978C23.5563 28.4175 24.2323 27.1218 24.9646 25.7697C25.528 24.5304 25.9224 23.2346 26.0914 21.8826C26.1477 21.7136 26.1477 21.4883 26.204 21.3193L26.2604 20.9812L26.5984 21.0375C27.3308 21.2066 29.9222 21.6572 31.8939 20.1362C32.9079 19.2912 33.6966 18.2208 34.26 17.0378C34.6543 15.6857 34.7106 14.2774 34.5416 12.9253C34.3163 11.517 33.4713 10.3339 32.2319 9.60158L31.2178 9.03824H32.3446C31.6686 8.64386 30.9362 8.47483 30.1475 8.41855C29.4715 8.41855 28.7391 8.53117 28.1194 8.81288L26.8237 9.37622L27.7814 8.36221C27.1617 8.53117 26.5984 8.75654 26.0914 9.09452C23.9506 10.5029 23.5 12.9253 23.3873 13.6577L23.331 14.0521L22.9366 13.883C21.5846 13.376 20.1198 12.9816 18.7115 12.7L18.4862 12.6437V12.024L18.3735 12.2493L18.0918 11.7986C17.9792 11.4606 17.9792 11.0663 18.0918 10.7283C17.8665 10.841 17.6974 11.0663 17.6411 11.348L17.4157 12.4183L17.5848 12.5873L16.7961 12.531C15.106 12.4183 13.3597 12.531 11.6696 12.8127L11.2752 12.869L11.3316 12.4746C11.5006 11.1789 11.2189 9.88322 10.4303 8.86922C10.2049 8.58751 9.97953 8.36221 9.69789 8.19319L9.75423 9.09452L9.13454 8.47483C8.45852 7.68619 7.55713 7.23546 6.54312 7.17918H5.92343ZM16.9651 10.6719C16.7961 10.7846 16.6834 11.0099 16.6834 11.2353C16.6834 11.5733 16.7961 11.855 17.0214 12.0803L17.3595 12.4183L17.0778 11.4043C17.0778 11.348 17.0214 11.0099 16.9651 10.6719Z" fill="#141516"/>
<path d="M16.7959 36.1353L17.1903 30.9524L21.5844 29.6567L21.1337 35.2902L16.7959 36.1353Z" fill="#E7B34E"/>
<path d="M17.2464 31.1782C17.2464 31.1782 20.9645 30.1078 21.0772 30.6711C21.1898 31.2345 21.1335 32.5302 21.1335 32.5302L20.6828 34.9526C20.5138 35.1779 20.2885 35.347 20.0068 35.4596C18.9928 35.6849 17.9224 35.9103 16.8521 36.023V36.192L21.1335 35.4033L21.6405 29.5444L20.0068 29.9951L17.19 30.9528L17.2464 31.1782Z" fill="#CF9D49"/>
<path d="M17.4156 26.1078C17.0213 26.1078 16.6832 26.0515 16.2889 25.9952C16.2889 25.9952 14.8805 25.7698 12.3454 25.2065C11.3878 24.9811 10.7117 24.5868 10.43 23.9671C10.1484 23.4038 10.1484 22.7277 10.3737 22.1081C10.6554 21.432 11.8384 19.0096 15.4439 19.404C18.2606 19.7983 19.4437 21.094 19.9507 22.0517C20.4577 22.8968 20.514 23.9108 20.176 24.8122C19.669 25.8825 18.3733 26.1078 17.4156 26.1078ZM11.0497 22.446C10.937 22.8404 10.937 23.2347 11.1061 23.5728C11.4441 24.0235 11.9511 24.3614 12.5145 24.4178C15.0495 24.9811 16.4579 25.2065 16.4579 25.2065C17.134 25.3192 19.0493 25.4318 19.5 24.4741C19.7253 23.7981 19.669 23.0657 19.2747 22.446C18.824 21.6011 17.8099 20.587 15.3312 20.1927C11.8384 19.7983 11.0497 22.3897 11.0497 22.446Z" fill="#131415"/>
<path d="M11.2755 19.9674C10.9938 19.9674 10.7122 19.911 10.4305 19.8547C9.97982 19.7421 9.58543 19.4604 9.41647 19.0661C9.30379 18.4464 9.41647 17.8267 9.69811 17.3196C10.0362 16.6436 10.7122 16.2493 11.4445 16.3056C12.1205 16.4183 12.6275 17.376 12.6275 17.376C12.8529 17.9393 13.1909 19.1787 12.0078 19.7984C11.7825 19.911 11.5572 19.9674 11.2755 19.9674ZM11.9516 19.5731C13.1909 18.6153 12.1205 16.9816 11.5008 16.8126C10.9375 16.6999 10.4305 16.9253 10.0924 17.376C9.69811 17.7703 9.52909 18.39 9.69811 18.9534C9.86713 19.3477 10.1488 19.5167 10.7122 19.6294C11.1065 19.6857 11.5572 19.6857 11.9516 19.5731Z" fill="#1D1D1B"/>
<path d="M21.5281 21.263C20.7957 21.263 19.669 21.1504 19.331 20.1363C19.162 19.6293 19.6127 18.5026 20.0634 18.0519C20.5704 17.6012 21.2464 17.3759 21.9224 17.5449C22.4294 17.7139 22.8801 18.1083 23.0491 18.6153C23.0491 18.6716 23.6125 20.249 22.5984 21.0377C22.2605 21.2067 21.9224 21.263 21.5281 21.263ZM22.4858 20.8123C23.1054 20.3616 23.2181 18.3336 21.6971 18.0519C21.1338 17.8829 20.5141 18.1083 20.176 18.5589C19.7817 19.0096 19.5564 19.5729 19.6127 20.1926C19.669 20.5307 19.9507 20.8123 20.2887 20.8686C21.0774 21.1503 21.7534 21.3193 22.4858 20.8123Z" fill="#141516"/>
<path d="M12.1763 29.8261C12.1763 29.8261 15.6127 30.9528 15.8944 31.6289C16.1761 32.3049 16.0634 31.0092 16.0071 30.9528C15.9507 30.8965 12.1763 29.5444 12.1763 29.5444V29.8261Z" fill="#CF9D49"/>
<path d="M10.0354 16.4181C9.86648 16.1364 9.9791 15.742 10.2608 15.5731C10.2608 15.5731 10.2608 15.5731 10.3171 15.5731C10.9932 15.4041 11.1622 15.8547 11.1059 15.8547C10.9368 15.742 10.6551 15.742 10.4862 15.8547C10.2608 15.9674 10.0918 16.1364 10.0354 16.4181Z" fill="#1D1D1B"/>
<path d="M22.1476 17.1507C22.0913 17.0944 22.542 16.6437 22.9927 16.9254C23.4997 17.376 23.1617 17.7704 23.1617 17.7704C23.1053 17.6014 23.049 17.376 22.88 17.2634C22.6546 17.0944 22.4293 17.0944 22.1476 17.1507Z" fill="#000105"/>
<path d="M23.5003 17.1507C23.3313 16.531 22.768 16.193 22.1483 16.3056C22.0919 16.3056 22.0356 16.362 21.9792 16.362" fill="#94948E"/>
<path d="M16.4016 27.3471C15.8946 27.3471 15.3875 27.1781 14.9932 26.84C14.9368 26.7837 14.9368 26.6711 14.9932 26.6147C15.0495 26.5584 15.1622 26.5584 15.2185 26.6147C15.6129 26.9527 16.1199 27.0654 16.6269 27.009C17.1902 26.8964 17.7536 26.6711 18.2043 26.333C17.8662 26.84 17.3029 27.2344 16.6832 27.3471H16.4016Z" fill="#141516"/>
<path opacity="0.3" d="M11.5008 23.5728C11.5008 23.5728 10.8811 20.4744 13.8106 20.6434C11.6698 21.0378 11.5008 23.5728 11.5008 23.5728Z" fill="white"/>
<path d="M12.7399 12.4182L12.9652 10.7282L7.44434 7.74247L19.5564 4.64404L30.2601 10.4465L24.0069 12.1366L23.8378 13.9957C23.8378 13.9957 22.7112 12.9252 18.486 12.4182C14.5989 12.0239 12.7399 12.4182 12.7399 12.4182Z" fill="#1D1D1B"/>
<path d="M23.782 14.2775C23.6693 14.2775 23.613 14.2212 23.5567 14.1648C23.5567 14.1648 22.43 13.1508 18.3739 12.7001C16.5148 12.4185 14.6558 12.4185 12.7967 12.6438C12.684 12.6438 12.6277 12.6438 12.515 12.5874C12.4587 12.5311 12.4023 12.4185 12.4023 12.3058L12.5714 10.841L7.21956 7.96798C7.10688 7.91164 7.05054 7.79896 7.05054 7.68628C7.05054 7.5736 7.16322 7.46092 7.2759 7.40464L19.3879 4.30615H19.6133L30.3169 10.1087C30.4296 10.165 30.4859 10.2777 30.4859 10.3904C30.4859 10.5031 30.3733 10.6157 30.2606 10.672L24.2327 12.3058L24.0637 13.9958C24.0637 14.1085 24.0074 14.1648 23.8947 14.2212C23.8384 14.2775 23.8384 14.2775 23.782 14.2775ZM15.0501 11.9114C16.1768 11.9114 17.3598 11.9677 18.4866 12.1368C21.416 12.4747 22.8807 13.0944 23.5567 13.4325L23.6693 12.0804C23.6693 11.9677 23.782 11.8551 23.8947 11.7988L29.4155 10.2777L19.5006 4.92584L8.23357 7.79896L13.0784 10.4467C13.191 10.5031 13.2474 10.6157 13.2474 10.7284L13.0784 12.0241C13.7544 11.9114 14.3741 11.9114 15.0501 11.9114Z" fill="#000105"/>
<path d="M23.7812 13.996C23.7812 13.996 24.1192 11.1229 24.1192 10.8976C20.7391 9.09489 16.7957 8.58782 13.0775 9.54555L12.7395 12.306C14.7112 12.0243 16.683 12.0243 18.6547 12.3623C20.4574 12.5876 22.2038 13.151 23.7812 13.996Z" fill="#555555"/>
<path d="M24.0634 14.4465L23.6691 14.2775C22.0918 13.4888 20.4017 12.9818 18.6553 12.7001C16.7399 12.3621 14.7682 12.3621 12.8528 12.6438L12.4021 12.7001L12.8528 9.32004L13.0218 9.2637C16.7962 8.30597 20.8524 8.81304 24.2888 10.6721L24.4578 10.7284V10.9537C24.4578 11.1791 24.1198 14.0522 24.1198 14.0522L24.0634 14.4465ZM15.5005 11.7988C16.5709 11.7988 17.6976 11.9115 18.768 12.0804C20.458 12.3621 22.0354 12.8691 23.6128 13.5452C23.6691 12.8691 23.8381 11.5734 23.8945 11.0664C20.6834 9.43272 16.9653 8.982 13.4724 9.77071L13.1908 11.9678C13.9795 11.8551 14.7118 11.7988 15.5005 11.7988Z" fill="#000105"/>
<path d="M11.6697 33.6004C10.712 33.4878 9.86698 32.8118 9.58527 31.8541C9.19095 30.1077 10.374 28.5866 13.078 28.3613C13.1344 28.9247 13.078 29.4317 13.0217 29.9387C12.9654 30.164 12.064 29.488 12.0077 29.7697C11.6697 29.9387 12.1767 31.178 12.0077 31.5161C11.6697 32.0794 11.557 32.7555 11.6697 33.3751C11.726 33.3751 11.7824 33.4315 11.7824 33.4878C11.7824 33.5442 11.726 33.6004 11.6697 33.6004Z" fill="#94948E"/>
<path d="M12.3452 29.4878L15.2746 30.5583L16.7393 30.8962L21.6405 29.5442C21.6405 29.5442 19.9504 28.8682 19.8941 28.8682C19.8378 28.8682 16.514 30.5583 16.514 30.5583L14.9366 29.6569L12.5142 29.0372L12.3452 29.4878Z" fill="white"/>
<path d="M12.4021 28.4174C12.4584 28.4737 12.5148 28.5863 12.5711 28.699C12.6275 28.8117 12.6275 28.9807 12.5711 29.0934C12.6275 29.0934 12.9091 29.2624 12.9654 29.0934C13.0218 28.8117 13.0218 28.5863 13.0218 28.3047L12.4021 28.4174C12.5148 28.4174 12.5711 28.4174 12.6838 28.361L12.4021 28.4174Z" fill="#5E5E5E"/>
<path d="M16.7959 36.3047H16.1762C14.5425 36.2483 12.9651 35.9104 11.5004 35.2907C11.3877 35.2343 11.2751 35.1217 11.3314 35.009L11.7257 29.3755C11.7257 29.2628 11.7821 29.2065 11.8947 29.1502C12.0074 29.0938 12.0638 29.0938 12.1764 29.1502C12.2327 29.1502 15.1058 30.4459 16.1198 30.6148C16.4579 30.6712 16.7395 30.6712 17.0776 30.6148C18.5986 30.2769 20.0633 29.8262 21.4717 29.2628C21.528 29.2065 21.6407 29.1502 21.7534 29.2065C21.866 29.2628 21.9787 29.3755 21.9787 29.5445L21.8097 35.2907C20.2323 35.9104 18.5422 36.2483 16.7959 36.3047ZM11.9511 34.7837C13.3031 35.2907 14.7678 35.6287 16.2325 35.685C17.8099 35.7413 19.3873 35.5724 20.852 35.0653L21.3027 29.9389C20.852 30.1078 20.4013 30.2769 19.8943 30.3895C18.993 30.6712 18.0916 30.9529 17.1902 31.1219C16.7959 31.1782 16.4016 31.1782 16.0072 31.1219C14.7115 30.7839 13.4721 30.3332 12.2891 29.7699L11.9511 34.7837Z" fill="#000105"/>
<path d="M16.5146 30.7835L16.3457 30.6145C15.5006 29.9948 14.4866 29.6004 13.4726 29.4315C13.0782 29.3188 12.6276 29.3751 12.2332 29.6004L11.8389 29.1497C12.3459 28.8118 12.9656 28.6991 13.5852 28.8681C14.6556 29.0934 15.6697 29.4878 16.571 30.0511C17.3033 29.6004 19.5004 28.4174 20.3454 28.6991C20.7962 28.8681 21.3032 29.0371 21.7538 29.2061L21.5285 29.7694C21.5285 29.7694 20.4018 29.3751 20.1765 29.3188C19.6694 29.1497 17.8667 30.0511 16.6837 30.7272L16.5146 30.7835Z" fill="#000105"/>
<path d="M15.6694 35.9665L16.7961 36.0229L17.0778 31.0091C17.0778 31.0091 16.0074 30.8964 16.0074 31.0091L15.6694 35.9665Z" fill="#E7B34E"/>
<path d="M16.7958 36.3044L15.6691 36.2481C15.5564 36.2481 15.5001 36.1918 15.4437 36.1355C15.3875 36.0791 15.3875 35.9665 15.3875 35.9101L15.7254 30.8963C15.7254 30.7836 15.7818 30.7273 15.8381 30.6709C15.9508 30.6146 16.0071 30.502 17.1338 30.6146C17.3028 30.6146 17.4155 30.7836 17.4155 30.9526L17.1338 36.0228C17.0775 36.1355 16.9648 36.3044 16.7958 36.3044ZM16.0071 35.6848H16.5141L16.7394 31.2343H16.2888L16.0071 35.6848Z" fill="#000105"/>
<path opacity="0.7" d="M9.81009 31.7975C10.0279 31.7975 10.2045 31.4191 10.2045 30.9525C10.2045 30.4857 10.0279 30.1074 9.81009 30.1074C9.59231 30.1074 9.41577 30.4857 9.41577 30.9525C9.41577 31.4191 9.59231 31.7975 9.81009 31.7975Z" fill="white"/>
<path d="M11.3316 34.2198C11.8386 34.5015 13.0781 34.6141 12.8527 33.8255C12.7964 33.4311 11.8387 33.3748 11.4443 33.4311C11.2753 33.4874 10.8246 33.9382 11.3316 34.2198Z" fill="#94948E"/>
<path d="M11.9508 32.9807C12.2325 32.9243 12.5705 32.9243 12.8522 32.9807C12.8522 33.037 13.0212 33.6004 12.9648 33.6004C12.9085 33.6004 12.6268 33.9947 12.4578 33.9383C12.0635 33.8257 11.7255 33.7693 11.3311 33.713C11.2747 33.6566 10.9368 33.4877 10.9368 33.375C10.9368 33.2623 10.9931 32.8117 11.0494 32.8117C11.1058 32.8117 11.3311 32.7553 11.3311 32.8117C11.5565 32.868 11.7255 32.9243 11.9508 32.9807Z" fill="#94948E"/>
<path d="M11.9508 32.1359C12.0071 31.8542 12.8522 32.3049 12.8522 32.3612C12.8522 32.4175 13.0212 32.9809 12.9648 32.9809C12.9085 32.9809 12.6268 33.3753 12.4578 33.3189C12.2888 33.2626 11.4438 33.0936 11.3311 33.0936C11.2184 33.0936 10.9368 32.8683 10.9368 32.7556C10.9368 32.6429 10.9931 32.1922 11.0494 32.1922C11.1058 32.1922 11.2184 31.7415 11.2184 31.7978L11.9508 32.1359Z" fill="#94948E"/>
<path d="M11.5005 34.3327C11.5005 34.3327 11.4442 34.2763 11.4442 33.9383C11.4442 33.6003 11.1061 33.7693 11.0498 33.7693C11.0498 33.9383 11.1061 34.1073 11.1625 34.2763C11.2188 34.3327 11.5005 34.3327 11.5005 34.3327Z" fill="#94948E"/>
<path opacity="0.9" d="M11.5005 32.7554C11.5005 32.6428 11.5005 32.5301 11.5568 32.4174C11.6695 32.3047 11.8384 32.192 12.0075 32.192C12.0075 32.192 11.8948 32.1357 11.8948 32.192C11.8948 32.2484 11.3314 32.2484 11.3314 32.2484L11.2188 32.699L11.5005 32.7554Z" fill="white"/>
<path opacity="0.9" d="M11.5003 34.3327C11.444 34.22 11.3876 34.051 11.3876 33.9383C11.444 33.7693 11.0496 33.882 11.0496 33.882C11.0496 33.882 10.8243 34.4454 10.8806 34.4454C10.937 34.4454 11.5003 34.3327 11.5003 34.3327Z" fill="white"/>
<path opacity="0.9" d="M11.3878 33.544C11.3315 33.375 11.3315 33.206 11.3878 33.037C11.5005 32.7553 11.0498 32.9243 11.0498 32.9243L11.2188 33.6567L11.3878 33.544Z" fill="white"/>
<path d="M12.4021 32.3045C12.5711 32.4171 12.6275 32.6425 12.5148 32.8115C12.5148 32.8678 12.4584 32.8678 12.4584 32.9241C12.7964 33.2622 12.9091 32.4735 12.9091 32.4735C12.9091 32.4735 12.9091 32.2481 12.4021 32.3045Z" fill="#5E5E5D"/>
<path d="M12.4021 33.1497C12.5711 33.2623 12.6275 33.4876 12.5148 33.6567C12.5148 33.713 12.4584 33.713 12.4584 33.7693C12.7964 34.1073 12.9091 33.3186 12.9091 33.3186C12.9091 33.3186 12.9091 33.037 12.4021 33.1497Z" fill="#5E5E5D"/>
<path d="M12.3454 33.9383C12.3454 33.9383 12.4017 34.1636 12.0637 34.4453C12.4017 34.727 12.8524 34.0509 12.8524 34.0509C12.8524 34.0509 12.7961 33.8819 12.3454 33.9383Z" fill="#5E5E5D"/>
<path d="M13.134 29.0936L12.627 29.0372C12.6833 28.5866 12.8523 28.1358 13.134 27.7979L13.5846 27.9105C13.3593 28.2485 13.2466 28.6429 13.134 29.0936Z" fill="#000105"/>
<path d="M20.4582 29.2064C20.4019 28.9247 20.2892 28.6994 20.1765 28.4177L20.7399 28.1924C20.7399 28.2487 21.0216 29.0374 21.0216 29.0374L20.4582 29.2064Z" fill="#000105"/>
<path d="M10.8812 33.6568C10.8248 33.6006 9.0221 32.0232 9.07844 30.6711C9.47283 28.2487 12.7966 27.7417 12.9656 27.7417L13.1346 28.305C13.0783 28.305 9.81081 28.6994 9.47283 30.6711C9.41648 31.5161 10.6559 32.9245 11.0502 33.2062L10.8812 33.6568Z" fill="#000105"/>
<path d="M12.2895 33.4316C11.9515 33.4316 11.6135 33.3752 11.2754 33.2062C10.9938 33.0373 10.8811 32.7556 10.8811 32.4739C10.9374 32.1359 11.1627 31.9105 11.5008 31.8542C12.0078 31.7416 12.5148 31.7979 12.9655 32.0795C13.0781 32.1922 13.1908 32.3049 13.1908 32.4739C13.3035 32.7556 13.1908 33.0935 12.9655 33.2626C12.7965 33.3752 12.5148 33.4316 12.2895 33.4316ZM11.9515 32.3612H11.6135C11.6135 32.3612 11.5008 32.4739 11.5008 32.5302L11.6135 32.6429C11.9515 32.8119 12.3458 32.8682 12.6838 32.7556C12.6838 32.7556 12.7402 32.6992 12.6838 32.5865V32.5302C12.6275 32.4176 12.2895 32.3612 11.9515 32.3612Z" fill="#000105"/>
<path d="M12.2898 34.2201C11.8954 34.2201 11.501 34.1074 11.1631 33.9384C10.8814 33.7693 10.7124 33.4877 10.7124 33.206C10.7124 32.9244 10.8251 32.6427 11.1067 32.4736L11.3884 32.9807C11.3321 32.9807 11.2757 33.1497 11.3321 33.2623C11.3884 33.375 11.3884 33.375 11.4448 33.4314C11.7828 33.6567 12.2334 33.713 12.6278 33.544C12.7404 33.375 12.7404 33.1497 12.6278 32.9807L13.1911 32.7553C13.3038 33.0933 13.3038 33.4877 13.1348 33.8257C13.0221 33.9947 12.8531 34.1074 12.6278 34.1637C12.5151 34.1637 12.4024 34.2201 12.2898 34.2201Z" fill="#000105"/>
<path d="M11.8385 34.8395C11.4442 34.8395 10.7682 34.4452 10.7118 34.1635C10.6555 33.8819 10.8245 33.6002 11.0499 33.4312L11.3315 33.7129L11.2752 33.6565L11.3315 33.7129C11.2189 33.7692 11.2752 34.0508 11.2189 34.1072C11.6132 34.3889 12.1766 34.3889 12.5146 34.0508C12.5709 33.9946 12.5709 33.8819 12.5709 33.8255L13.1342 33.7129C13.2469 33.9946 13.1342 34.3325 12.9089 34.5016C12.6272 34.7269 12.2329 34.8395 11.8385 34.8395Z" fill="#000105"/>
<path opacity="0.7" d="M24.0071 32.2481C24.2249 32.2481 24.4014 31.8698 24.4014 31.4032C24.4014 30.9364 24.2249 30.5581 24.0071 30.5581C23.7893 30.5581 23.6128 30.9364 23.6128 31.4032C23.6128 31.8698 23.7893 32.2481 24.0071 32.2481Z" fill="white"/>
<path d="M21.8666 32.5866C21.8102 32.3049 20.9652 32.7556 20.9652 32.8119C20.9652 32.8682 20.7962 33.4316 20.8526 33.4316C20.9089 33.4316 20.7962 34.8963 20.9652 34.8399C21.1343 34.7836 23.275 35.4033 22.4863 33.5442C22.4299 33.4879 22.8806 33.3189 22.8806 33.2063C22.8806 33.0936 22.8243 32.6429 22.768 32.6429C22.7116 32.6429 22.5989 32.1922 22.5989 32.2485L21.8666 32.5866Z" fill="#94948E"/>
<path opacity="0.9" d="M22.2601 33.2059C22.2601 33.0932 22.2601 32.9805 22.2037 32.8679C22.091 32.7552 21.9783 32.6989 21.8093 32.6989C21.8093 32.6989 21.922 32.6425 21.922 32.6989C21.922 32.7552 22.4854 32.7552 22.4854 32.7552L22.598 33.2059H22.2601Z" fill="#5D5D5C"/>
<path opacity="0.9" d="M21.9224 34.7834C21.9787 34.6707 22.035 34.5017 22.035 34.389C21.9787 34.22 22.7111 34.3327 22.7111 34.3327C22.5421 34.558 22.3731 34.727 22.2041 34.896C22.1477 34.9524 21.9224 34.7834 21.9224 34.7834Z" fill="#5D5D5C"/>
<path opacity="0.9" d="M22.3733 33.9945C22.4296 33.8255 22.4296 33.6566 22.3733 33.4875C22.3169 33.2622 22.7677 33.3748 22.7677 33.3748L22.5986 34.1072L22.3733 33.9945Z" fill="#5D5D5C"/>
<path d="M22.8802 33.9947L22.6549 33.6567C23.0492 33.375 24.4013 32.1357 24.4013 31.2907C24.0632 29.3753 20.5142 28.6993 20.5142 28.6993L20.5705 28.2485C20.7395 28.2485 24.3449 28.6993 24.7393 31.2343V31.2907C24.7956 32.699 23.1056 33.882 22.8802 33.9947Z" fill="#000105"/>
<path d="M21.5278 33.9384C21.2461 33.9384 21.0207 33.882 20.7954 33.713C20.5701 33.4877 20.4574 33.1497 20.5701 32.868C20.5701 32.699 20.6828 32.5863 20.7954 32.4737C21.2461 32.2484 21.7531 32.192 22.2601 32.2483C22.5418 32.3046 22.7671 32.5863 22.8235 32.868C22.8798 33.206 22.7108 33.544 22.4291 33.713C22.1474 33.8257 21.8658 33.9384 21.5278 33.9384ZM21.8658 32.8117C21.5278 32.8117 21.1898 32.868 21.1334 32.9807C21.0771 33.037 21.0771 33.0933 21.0771 33.1497C21.0771 33.206 21.1334 33.2624 21.1898 33.2624C21.5277 33.375 21.8658 33.375 22.1474 33.206C22.2601 33.1497 22.2601 33.0933 22.2601 33.037C22.2601 32.9807 22.2601 32.8117 21.8658 32.8117Z" fill="#000105"/>
<path d="M21.5283 34.6708C21.4156 34.6708 21.2466 34.6708 21.1339 34.6144C20.9649 34.5581 20.7959 34.4454 20.6832 34.2764C20.5142 33.9384 20.5142 33.544 20.6269 33.206L21.1902 33.4314C21.0775 33.6003 21.0775 33.8257 21.1902 33.9947C21.2466 34.1074 21.9226 34.1074 22.3732 33.882C22.4296 33.8257 22.4859 33.7694 22.4859 33.713C22.4859 33.6003 22.4859 33.544 22.4296 33.4314L22.7113 32.9243C22.9366 33.0933 23.1056 33.375 23.1056 33.6567C23.1056 33.9947 22.9366 34.2764 22.6549 34.389C22.3169 34.5581 21.9226 34.6708 21.5283 34.6708Z" fill="#000105"/>
<path d="M7.83873 19.0098L7.27539 18.8407C7.33173 18.6154 9.35975 12.6439 11.8948 12.2495L12.2892 12.7002C10.4865 12.9255 8.40208 17.376 7.83873 19.0098Z" fill="#000105"/>
<path opacity="0.7" d="M13.4719 9.77088L13.1902 11.9679L13.6408 11.9116C13.6972 11.1793 13.7535 10.3906 13.9226 9.6582C13.7535 9.6582 13.6408 9.6582 13.4719 9.77088Z" fill="white"/>
<path d="M16.6269 36.3044C9.64132 36.417 3.89514 30.8962 3.78247 23.9107C3.78247 23.8543 3.78247 23.7416 3.78247 23.6853H4.40216C4.40216 30.4455 9.81035 35.6847 16.6832 35.6847C23.7251 35.6847 29.5839 29.7132 29.5839 23.2346L30.1473 23.0093C30.1473 26.3894 28.7952 30.2202 26.2038 32.6426C23.5561 34.9523 20.176 36.248 16.6269 36.3044Z" fill="#000105"/>
<path d="M26.4859 21.6575C26.317 21.6575 26.2043 21.6012 26.2043 21.4322C26.2043 21.3759 26.2043 21.3759 26.2043 21.3195C26.8803 16.3057 23.7819 14.334 23.6692 14.2776C23.5565 14.2213 23.5002 13.996 23.5565 13.8833C23.6129 13.7706 23.8382 13.7143 23.9508 13.7706C24.1199 13.8833 27.5 16.024 26.7676 21.4322C26.7676 21.5449 26.5986 21.6575 26.4859 21.6575Z" fill="#141516"/>
<path d="M20.9086 35.5159C20.6269 35.4596 20.7396 35.4032 20.6832 35.2906C20.5142 34.9526 20.5142 34.5583 20.6269 34.2202L21.1902 34.4456C21.0775 34.6146 21.0775 34.8399 21.1902 35.0089C21.2466 35.1216 22.4296 34.4456 22.4296 34.4456C21.9226 34.8399 21.4156 35.1779 20.9086 35.5159Z" fill="#000105"/>
<path d="M46.9784 15.4194C47.2037 15.4194 47.2601 15.5884 47.1474 15.8138L44.1617 19.9825L47.2601 24.433C47.429 24.6584 47.3728 24.8837 47.1474 24.8837H45.063C44.8377 24.8837 44.725 24.8274 44.6123 24.6584L42.3589 21.2219H41.9082V24.6584C41.9082 24.771 41.7955 24.8837 41.6829 24.8837H39.9365C39.8239 24.8837 39.7112 24.771 39.7112 24.6584V15.7011C39.7112 15.5884 39.8239 15.4758 39.9365 15.4758H41.6829C41.7955 15.4758 41.9082 15.5884 41.9082 15.7011V19.0249H42.3589L44.6123 15.7011C44.725 15.5321 44.8377 15.4758 45.063 15.4758H46.9784V15.4194Z" fill="#0C0C0C"/>
<path d="M53.2873 24.9957C50.8086 24.9957 48.6116 23.0804 48.6116 20.1509C48.6116 17.2215 50.7523 15.3062 53.2873 15.3062C55.7661 15.3062 57.9632 17.2215 57.9632 20.1509C57.9632 23.1367 55.7661 24.9957 53.2873 24.9957ZM53.2873 17.6159C51.9353 17.6159 50.9776 18.6863 50.9776 20.2073C50.9776 21.7284 51.9353 22.7424 53.2873 22.7424C54.6394 22.7424 55.5971 21.672 55.5971 20.2073C55.5971 18.6863 54.6394 17.6159 53.2873 17.6159Z" fill="#0C0C0C"/>
<path d="M67.1464 24.6014C67.1464 24.7141 67.0336 24.8268 66.9208 24.8268H65.1748C65.062 24.8268 64.9492 24.7141 64.9492 24.6014V22.179H62.1886V24.6014C62.1886 24.7141 62.0764 24.8268 61.9636 24.8268H60.2171C60.1044 24.8268 59.9917 24.7141 59.9917 24.6014V19.1369C59.9917 18.0103 60.4424 16.7709 61.3437 16.0385C61.9072 15.5879 62.6392 15.3062 63.5974 15.3062C64.555 15.3062 65.287 15.5879 65.8504 16.0385C66.808 16.8272 67.2028 18.0103 67.2028 19.1369V24.6014H67.1464ZM62.6392 17.9539C62.4142 18.2356 62.1886 18.6299 62.1886 19.306V20.0383H64.9492V19.306C64.9492 18.6299 64.78 18.2356 64.4986 17.9539C64.2166 17.6722 63.8788 17.6159 63.541 17.6159C63.259 17.6159 62.9212 17.6722 62.6392 17.9539Z" fill="#0C0C0C"/>
<path d="M70.5826 24.8833H69.2308C69.0052 24.8833 68.8366 24.7143 69.0616 24.3763C69.5122 23.5876 69.7942 22.7989 69.9634 21.8976C70.132 20.9399 70.1884 19.8695 70.1884 18.5738V15.757C70.1884 15.6444 70.3012 15.5317 70.414 15.5317H76.7794C76.8922 15.5317 77.0051 15.6444 77.0051 15.757V24.658C77.0051 24.7707 76.8922 24.8833 76.7794 24.8833H75.0334C74.9206 24.8833 74.8078 24.7707 74.8078 24.658V17.6161H72.442V18.5175C72.442 19.5878 72.3292 20.9399 72.1036 22.0666C71.935 22.9116 71.4844 24.0383 71.146 24.5453C70.9774 24.827 70.8646 24.8833 70.5826 24.8833Z" fill="#0C0C0C"/>
<path d="M84.9478 19.8134L81.6237 23.5315V24.6018C81.6237 24.7145 81.5109 24.8272 81.3987 24.8272H79.6521C79.5393 24.8272 79.4265 24.7145 79.4265 24.6018V15.7009C79.4265 15.5883 79.5393 15.4756 79.6521 15.4756H81.3987C81.5109 15.4756 81.6237 15.5883 81.6237 15.7009V20.5457L84.9478 16.884V15.7009C84.9478 15.5883 85.0606 15.4756 85.1728 15.4756H86.9194C87.0322 15.4756 87.145 15.5883 87.145 15.7009V24.6018C87.145 24.7145 87.0322 24.8272 86.9194 24.8272H85.1728C85.0606 24.8272 84.9478 24.7145 84.9478 24.6018V19.8134Z" fill="#0C0C0C"/>
<path d="M89.5674 24.6018V15.7009C89.5674 15.5883 89.6802 15.4756 89.793 15.4756H91.539C91.6518 15.4756 91.7646 15.5883 91.7646 15.7009V22.7428H94.863V15.7009C94.863 15.5883 94.9758 15.4756 95.0886 15.4756H96.8346C96.9474 15.4756 97.0602 15.5883 97.0602 15.7009V22.7428H99.0319C99.1447 22.7428 99.2568 22.8555 99.2568 22.9681V24.6018C99.2568 24.7709 99.1447 24.8835 98.9755 24.8835H97.0038H89.7366C89.6238 24.8835 89.5674 24.7709 89.5674 24.6018Z" fill="#0C0C0C"/>
<path d="M106.581 19.8134L103.257 23.5315V24.6018C103.257 24.7145 103.144 24.8272 103.032 24.8272H101.285C101.173 24.8272 101.06 24.7145 101.06 24.6018V15.7009C101.06 15.5883 101.173 15.4756 101.285 15.4756H103.032C103.144 15.4756 103.257 15.5883 103.257 15.7009V20.5457L106.581 16.884V15.7009C106.581 15.5883 106.693 15.4756 106.806 15.4756H108.553C108.665 15.4756 108.778 15.5883 108.778 15.7009V24.6018C108.778 24.7145 108.665 24.8272 108.553 24.8272H106.806C106.693 24.8272 106.581 24.7145 106.581 24.6018V19.8134Z" fill="#0C0C0C"/>
<path d="M110.862 18.5737C110.862 17.5596 111.2 16.6583 111.876 16.095C112.439 15.588 113.228 15.4189 114.073 15.4189H117.904C118.016 15.4189 118.129 15.5316 118.129 15.6443V24.5452C118.129 24.6579 118.016 24.7706 117.904 24.7706H116.158C116.045 24.7706 115.932 24.6579 115.932 24.5452V21.7285H114.58L113.228 24.5452C113.116 24.7706 113.003 24.7706 112.777 24.7706H110.806C110.693 24.7706 110.581 24.7142 110.581 24.6015C110.581 24.5452 110.581 24.4325 110.637 24.3762L112.27 21.2778C112.102 21.1651 111.932 21.0524 111.763 20.8834C111.144 20.2637 110.862 19.4188 110.862 18.5737ZM114.242 17.5034C113.96 17.5034 113.679 17.5596 113.51 17.7287C113.284 17.8977 113.172 18.1793 113.172 18.63C113.172 19.0807 113.341 19.3624 113.566 19.5314C113.791 19.6441 114.017 19.7567 114.298 19.7567H115.932V17.5034H114.242Z" fill="#0C0C0C"/>
</svg>
